<svg version="1.2" xmlns="http://www.w3.org/2000/svg" viewBox="0 0 291 196" width="291" height="196">
	<title>2-svg</title>
	<defs>
		<clipPath clipPathUnits="userSpaceOnUse" id="cp1">
			<path d="m38.52 56.9h216v23.1h-216z"/>
		</clipPath>
		<clipPath clipPathUnits="userSpaceOnUse" id="cp2">
			<path d="m38.52 129h216v21.65h-216z"/>
		</clipPath>
	</defs>
	<style>
		.s0 { fill: #ffffff } 
		.s1 { fill: #000000 } 
		.s2 { fill: #fe7a04 } 
	</style>
	<path id="Layer" class="s0" d="m-78.5-126.5h450v450h-450z"/>
	<path id="Layer" class="s1" d="m-78.5-126.5h450v450h-450z"/>
	<g id="Clip-Path" clip-path="url(#cp1)">
		<g id="Layer">
			<path id="Layer" class="s2" d="m41.3 59.4h210.4v20.2h2.5v-22.7h-215.4v22.7h2.5z"/>
		</g>
	</g>
	<g id="Clip-Path" clip-path="url(#cp2)">
		<g id="Layer">
			<path id="Layer" class="s2" d="m251.7 148.1h-210.4v-19h-2.5v21.5h215.4v-21.5h-2.5z"/>
		</g>
	</g>
	<g id="Layer">
		<g id="Layer">
			<g id="Layer">
				<path id="Layer" class="s0" d="m79.7 95.5q0 1.3-0.5 2.4-0.5 1.1-1.5 1.9-2 1.7-5.1 1.7-2.5 0-4.4-1-2-1-2.9-2.7l2.6-1.3q0.5 1 1.8 1.6 1.2 0.5 2.9 0.5 4.1 0 4.1-3.1 0-0.7-0.2-1.1-0.2-0.4-0.6-0.8-1.1-0.8-3.7-1.5-1.7-0.4-2.8-0.9-1.1-0.5-1.8-1.2-1.9-1.4-1.9-3.9 0-1.2 0.5-2.2 0.5-1.1 1.4-1.8 0.8-0.8 2-1.2 1.2-0.4 2.7-0.4 2.1 0 3.8 0.8 1.8 0.8 2.7 2.3l-2.3 1.4q-0.8-1-1.9-1.4-1.1-0.4-2.3-0.4-0.9 0-1.6 0.3-0.7 0.3-1.2 0.7-0.4 0.3-0.6 0.8-0.2 0.5-0.2 1.1 0 0.4 0.1 0.7 0.1 0.4 0.6 0.9 0.4 0.4 1.2 0.8 0.9 0.4 2.3 0.7 1.7 0.4 2.9 1 1.2 0.5 2 1.1 1.9 1.6 1.9 4.2z"/>
			</g>
		</g>
	</g>
	<g id="Layer">
		<g id="Layer">
			<g id="Layer">
				<path id="Layer" class="s0" d="m94.6 83.3v15.4h1.5v2.5h-6v-2.5h1.5v-15.4h-1.5v-2.5h6v2.5z"/>
			</g>
		</g>
	</g>
	<g id="Layer">
		<g id="Layer">
			<g id="Layer">
				<path id="Layer" class="s0" d="m124.3 80.8v20.4h-3.1l-11.3-15.7v15.7h-3.2v-20.4h3.2l11.4 15.7v-15.7z"/>
			</g>
		</g>
	</g>
	<g id="Layer">
		<g id="Layer">
			<g id="Layer">
				<path id="Layer" fill-rule="evenodd" class="s0" d="m134 101.2v-20.4h7.2q2.3 0 3.9 0.8 1.7 0.8 2.9 2.2 1.1 1.4 1.7 3.2 0.6 1.9 0.6 4 0 2.1-0.6 4-0.6 1.8-1.7 3.2-1.1 1.4-2.6 2.2-1.5 0.8-3.2 0.8zm7.1-2.8q1.6 0 2.8-0.6 1.1-0.6 1.9-1.6 0.7-1 1.1-2.4 0.3-1.3 0.3-2.8 0-1.5-0.3-2.8-0.4-1.4-1.1-2.4-0.7-1.1-1.9-1.7-1.2-0.6-2.8-0.6h-4.1v14.9z"/>
			</g>
		</g>
	</g>
	<g id="Layer">
		<g id="Layer">
			<g id="Layer">
				<path id="Layer" fill-rule="evenodd" class="s0" d="m174.1 95.5q0 1.2-0.4 2.2-0.5 1-1.2 1.8-0.8 0.8-1.9 1.2-1 0.5-2.2 0.5h-8.7v-20.4h8q1 0 1.9 0.4 0.9 0.4 1.6 1.1 0.7 0.7 1.1 1.6 0.4 1 0.4 2 0 1.3-0.4 2.4-0.5 1.1-1.4 1.8 1.6 0.6 2.4 2.1 0.8 1.4 0.8 3.3zm-11.4-6.4q1.1 0 2.1 0h2.9q1.1 0 1.8-0.8 0.8-0.9 0.8-2 0-1.2-0.8-2-0.7-0.8-1.8-0.8h-5zm0 9.3q0.2 0.1 0.9 0h4.8q0.6 0.1 1.1-0.2 0.6-0.3 1-0.7 0.4-0.5 0.6-1.1 0.2-0.6 0.2-1.2 0-0.7-0.2-1.3-0.2-0.6-0.6-1.1-0.4-0.4-1-0.7-0.5-0.2-1.1-0.2h-5.7z"/>
			</g>
		</g>
	</g>
	<g id="Layer">
		<g id="Layer">
			<g id="Layer">
				<path id="Layer" fill-rule="evenodd" class="s0" d="m185.2 101.2h-3.2l8.5-20.4h3.3l8.4 20.4h-3.2l-2.7-6.4h-8.4zm3.8-9.1h6.1l-3-7.4z"/>
			</g>
		</g>
	</g>
	<g id="Layer">
		<g id="Layer">
			<g id="Layer">
				<path id="Layer" fill-rule="evenodd" class="s0" d="m210.7 101.2v-20.4h7.3q2.2 0 3.9 0.8 1.7 0.8 2.8 2.2 1.2 1.4 1.8 3.2 0.6 1.9 0.6 4-0.1 2.1-0.7 4-0.6 1.8-1.7 3.2-1.1 1.4-2.6 2.2-1.5 0.8-3.2 0.8zm7.2-2.8q1.6 0 2.7-0.6 1.2-0.6 1.9-1.6 0.8-1 1.1-2.4 0.4-1.3 0.4-2.8 0-1.5-0.4-2.8-0.3-1.4-1.1-2.4-0.7-1.1-1.9-1.7-1.1-0.6-2.7-0.6h-4.2v14.9z"/>
			</g>
		</g>
	</g>
	<g id="Layer">
		<g id="Layer">
			<g id="Layer">
				<path id="Layer" class="s2" d="m37.9 112.3v1.1h-2v5.5h-1.2v-5.5h-2v-1.1z"/>
			</g>
		</g>
	</g>
	<g id="Layer">
		<g id="Layer">
			<g id="Layer">
				<path id="Layer" class="s2" d="m45.5 118.9h-1.3v-2.8h-3v2.8h-1.3v-6.6h1.3v2.9h3v-2.9h1.3z"/>
			</g>
		</g>
	</g>
	<g id="Layer">
		<g id="Layer">
			<g id="Layer">
				<path id="Layer" class="s2" d="m52.2 112.3v1h-2.9v1.9h2.3v0.9h-2.3v1.9h2.9v0.9h-4.1v-6.6z"/>
			</g>
		</g>
	</g>
	<g id="Layer">
		<g id="Layer">
			<g id="Layer">
			</g>
		</g>
	</g>
	<g id="Layer">
		<g id="Layer">
			<g id="Layer">
				<path id="Layer" fill-rule="evenodd" class="s2" d="m58.9 116.4v2.5h-1.3v-6.6h2q0.7 0 1.2 0.2 0.5 0.1 0.8 0.4 0.3 0.2 0.4 0.6 0.2 0.3 0.2 0.8 0 0.3-0.1 0.6-0.1 0.3-0.3 0.5-0.2 0.3-0.5 0.4-0.2 0.2-0.6 0.3 0.3 0.2 0.4 0.4l1.7 2.4h-1.1q-0.2 0-0.3 0-0.1-0.1-0.2-0.2l-1.4-2.1q0-0.1-0.1-0.2-0.1 0-0.3 0zm0-0.9h0.7q0.4 0 0.6-0.1 0.3-0.1 0.5-0.2 0.1-0.2 0.2-0.4 0.1-0.2 0.1-0.5 0-0.5-0.3-0.7-0.4-0.3-1-0.3h-0.8z"/>
			</g>
		</g>
	</g>
	<g id="Layer">
		<g id="Layer">
			<g id="Layer">
				<path id="Layer" class="s2" d="m69 112.3v1h-2.9v1.9h2.3v0.9h-2.3v1.9h2.9v0.9h-4.2v-6.6z"/>
			</g>
		</g>
	</g>
	<g id="Layer">
		<g id="Layer">
			<g id="Layer">
				<path id="Layer" class="s2" d="m74.8 113.5q0 0.2-0.1 0.2 0 0-0.1 0-0.1 0-0.2 0-0.1-0.1-0.3-0.2-0.2-0.1-0.4-0.1-0.2-0.1-0.5-0.1-0.2 0-0.4 0-0.2 0.1-0.3 0.2-0.2 0.1-0.2 0.3-0.1 0.1-0.1 0.3 0 0.2 0.2 0.4 0.1 0.1 0.3 0.3 0.2 0.1 0.5 0.2 0.3 0 0.5 0.1 0.3 0.1 0.6 0.3 0.3 0.1 0.5 0.3 0.2 0.2 0.3 0.5 0.2 0.3 0.2 0.7 0 0.4-0.2 0.8-0.1 0.4-0.4 0.7-0.3 0.3-0.8 0.4-0.4 0.2-0.9 0.2-0.3 0-0.6 0-0.3-0.1-0.6-0.2-0.3-0.1-0.6-0.3-0.2-0.2-0.4-0.4l0.4-0.5q0-0.1 0.1-0.1 0-0.1 0.1-0.1 0.2 0 0.3 0.1 0.1 0.1 0.3 0.2 0.2 0.1 0.4 0.2 0.3 0.1 0.6 0.1 0.5 0 0.8-0.2 0.3-0.3 0.3-0.8 0-0.2-0.1-0.4-0.2-0.1-0.4-0.3-0.2-0.1-0.5-0.1-0.2-0.1-0.5-0.2-0.3-0.1-0.6-0.2-0.2-0.2-0.5-0.4-0.2-0.2-0.3-0.5-0.1-0.3-0.1-0.7 0-0.4 0.1-0.7 0.2-0.4 0.4-0.6 0.3-0.3 0.7-0.5 0.4-0.1 0.9-0.1 0.6 0 1.1 0.2 0.5 0.1 0.8 0.5z"/>
			</g>
		</g>
	</g>
	<g id="Layer">
		<g id="Layer">
			<g id="Layer">
				<path id="Layer" class="s2" d="m82.1 112.3v1.1h-2v5.5h-1.2v-5.5h-2v-1.1z"/>
			</g>
		</g>
	</g>
	<g id="Layer">
		<g id="Layer">
			<g id="Layer">
				<path id="Layer" fill-rule="evenodd" class="s2" d="m89.9 118.9h-0.9q-0.2 0-0.3 0-0.1-0.1-0.1-0.2l-0.5-1.4h-2.7l-0.5 1.4q-0.1 0.1-0.2 0.2-0.1 0-0.2 0h-1l2.6-6.6h1.3zm-4.3-2.4h2.1l-0.8-2.2q-0.1-0.2-0.1-0.4-0.1-0.2-0.2-0.4 0 0.2-0.1 0.4-0.1 0.2-0.1 0.4z"/>
			</g>
		</g>
	</g>
	<g id="Layer">
		<g id="Layer">
			<g id="Layer">
				<path id="Layer" class="s2" d="m94.5 118q0.4 0 0.7-0.2 0.3-0.1 0.4-0.3 0.3-0.2 0.3-0.5 0.2-0.3 0.2-0.7v-4h1.2v4q0 0.6-0.2 1.1-0.2 0.5-0.6 0.9-0.3 0.3-0.8 0.5-0.5 0.2-1.2 0.2-0.6 0-1.1-0.2-0.5-0.2-0.9-0.5-0.3-0.4-0.5-0.9-0.2-0.5-0.2-1.1v-4h1.2v4q0 0.4 0.1 0.7 0.1 0.3 0.3 0.5 0.2 0.2 0.5 0.3 0.3 0.2 0.6 0.2z"/>
			</g>
		</g>
	</g>
	<g id="Layer">
		<g id="Layer">
			<g id="Layer">
				<path id="Layer" fill-rule="evenodd" class="s2" d="m101.1 116.4v2.5h-1.3v-6.6h2q0.7 0 1.2 0.2 0.5 0.1 0.8 0.4 0.3 0.2 0.4 0.6 0.2 0.3 0.2 0.8 0 0.3-0.1 0.6-0.1 0.3-0.3 0.5-0.2 0.3-0.5 0.4-0.2 0.2-0.6 0.3 0.3 0.2 0.4 0.4l1.7 2.4h-1.1q-0.2 0-0.3 0-0.1-0.1-0.2-0.2l-1.4-2.1q0-0.1-0.1-0.2-0.1 0-0.3 0zm0-0.9h0.7q0.4 0 0.6-0.1 0.3-0.1 0.5-0.2 0.1-0.2 0.2-0.4 0.1-0.2 0.1-0.5 0-0.5-0.3-0.7-0.4-0.3-1-0.3h-0.8z"/>
			</g>
		</g>
	</g>
	<g id="Layer">
		<g id="Layer">
			<g id="Layer">
				<path id="Layer" fill-rule="evenodd" class="s2" d="m112.8 118.9h-0.9q-0.2 0-0.3 0-0.1-0.1-0.1-0.2l-0.5-1.4h-2.8l-0.4 1.4q-0.1 0.1-0.2 0.2-0.1 0-0.3 0h-0.9l2.6-6.6h1.2zm-4.2-2.4h2.1l-0.8-2.2q-0.1-0.2-0.2-0.4 0-0.2-0.1-0.4-0.1 0.2-0.1 0.4-0.1 0.2-0.1 0.4z"/>
			</g>
		</g>
	</g>
	<g id="Layer">
		<g id="Layer">
			<g id="Layer">
				<path id="Layer" class="s2" d="m115.4 112.3q0.1 0 0.1 0.1 0.1 0 0.1 0 0.1 0 0.1 0.1 0.1 0 0.1 0l3.5 4.5q-0.1-0.2-0.1-0.4 0-0.1 0-0.2v-4.1h1.1v6.6h-0.6q-0.2 0-0.3 0-0.1-0.1-0.1-0.2l-3.5-4.4q0 0.2 0 0.3 0 0.2 0 0.3v4h-1v-6.6z"/>
			</g>
		</g>
	</g>
	<g id="Layer">
		<g id="Layer">
			<g id="Layer">
				<path id="Layer" class="s2" d="m127.6 112.3v1.1h-2v5.5h-1.3v-5.5h-1.9v-1.1z"/>
			</g>
		</g>
	</g>
	<g id="Layer">
		<g id="Layer">
			<g id="Layer">
			</g>
		</g>
	</g>
	<g id="Layer">
		<g id="Layer">
			<g id="Layer">
				<path id="Layer" class="s2" d="m137.2 117.4q0.1 0 0.1 0.1l0.5 0.5q-0.4 0.5-1 0.8-0.6 0.2-1.4 0.2-0.7 0-1.3-0.2-0.6-0.3-1-0.7-0.4-0.5-0.6-1.1-0.3-0.6-0.3-1.4 0-0.7 0.3-1.3 0.2-0.6 0.7-1.1 0.4-0.4 1-0.7 0.7-0.2 1.4-0.2 0.8 0 1.3 0.2 0.6 0.3 1 0.6l-0.5 0.6q0 0.1-0.1 0.1 0 0-0.1 0-0.1 0-0.2 0-0.1-0.1-0.3-0.2-0.2-0.1-0.4-0.2-0.3-0.1-0.7-0.1-0.4 0-0.8 0.2-0.4 0.1-0.7 0.5-0.3 0.3-0.4 0.7-0.2 0.4-0.2 0.9 0 0.6 0.2 1 0.1 0.5 0.4 0.8 0.3 0.3 0.6 0.4 0.4 0.2 0.8 0.2 0.2 0 0.5 0 0.2-0.1 0.3-0.1 0.2-0.1 0.4-0.2 0.1-0.1 0.3-0.2 0-0.1 0-0.1 0.1 0 0.2 0z"/>
			</g>
		</g>
	</g>
	<g id="Layer">
		<g id="Layer">
			<g id="Layer">
				<path id="Layer" fill-rule="evenodd" class="s2" d="m146.3 115.6q0 0.8-0.2 1.4-0.3 0.6-0.7 1.1-0.4 0.4-1.1 0.7-0.6 0.2-1.3 0.2-0.8 0-1.4-0.2-0.6-0.3-1-0.7-0.5-0.5-0.7-1.1-0.2-0.6-0.2-1.4 0-0.7 0.2-1.3 0.2-0.6 0.7-1.1 0.4-0.4 1-0.7 0.6-0.2 1.4-0.2 0.7 0 1.3 0.2 0.7 0.3 1.1 0.7 0.4 0.5 0.7 1.1 0.2 0.6 0.2 1.3zm-1.2 0q0-0.5-0.2-0.9-0.1-0.5-0.4-0.8-0.3-0.3-0.6-0.4-0.4-0.2-0.9-0.2-0.5 0-0.9 0.2-0.4 0.1-0.6 0.4-0.3 0.3-0.5 0.8-0.1 0.4-0.1 0.9 0 0.6 0.1 1 0.2 0.5 0.5 0.7 0.2 0.3 0.6 0.5 0.4 0.2 0.9 0.2 0.5 0 0.9-0.2 0.3-0.2 0.6-0.5 0.3-0.2 0.4-0.7 0.2-0.4 0.2-1z"/>
			</g>
		</g>
	</g>
	<g id="Layer">
		<g id="Layer">
			<g id="Layer">
				<path id="Layer" class="s2" d="m149.2 112.3q0.1 0 0.1 0.1 0.1 0 0.1 0 0.1 0 0.1 0.1 0.1 0 0.1 0l3.5 4.5q-0.1-0.2-0.1-0.4 0-0.1 0-0.2v-4.1h1.1v6.6h-0.6q-0.2 0-0.3 0-0.1-0.1-0.2-0.2l-3.4-4.4q0 0.2 0 0.3 0 0.2 0 0.3v4h-1v-6.6z"/>
			</g>
		</g>
	</g>
	<g id="Layer">
		<g id="Layer">
			<g id="Layer">
				<path id="Layer" class="s2" d="m160.2 113.5q0 0.2-0.1 0.2 0 0-0.1 0-0.1 0-0.2 0-0.1-0.1-0.3-0.2-0.2-0.1-0.4-0.1-0.2-0.1-0.5-0.1-0.2 0-0.4 0-0.2 0.1-0.3 0.2-0.2 0.1-0.2 0.3-0.1 0.1-0.1 0.3 0 0.2 0.1 0.4 0.2 0.1 0.4 0.3 0.2 0.1 0.5 0.2 0.3 0 0.5 0.1 0.3 0.1 0.6 0.3 0.3 0.1 0.5 0.3 0.2 0.2 0.3 0.5 0.2 0.3 0.2 0.7 0 0.4-0.2 0.8-0.1 0.4-0.4 0.7-0.3 0.3-0.8 0.4-0.4 0.2-0.9 0.2-0.3 0-0.7 0-0.2-0.1-0.5-0.2-0.3-0.1-0.6-0.3-0.2-0.2-0.4-0.4l0.4-0.5q0-0.1 0.1-0.1 0-0.1 0.1-0.1 0.1 0 0.3 0.1 0.1 0.1 0.3 0.2 0.2 0.1 0.4 0.2 0.3 0.1 0.6 0.1 0.5 0 0.8-0.2 0.3-0.3 0.3-0.8 0-0.2-0.1-0.4-0.2-0.1-0.4-0.3-0.2-0.1-0.5-0.1-0.2-0.1-0.5-0.2-0.3-0.1-0.6-0.2-0.2-0.2-0.5-0.4-0.2-0.2-0.3-0.5-0.1-0.3-0.1-0.7 0-0.4 0.1-0.7 0.2-0.4 0.4-0.6 0.3-0.3 0.7-0.5 0.4-0.1 0.9-0.1 0.6 0 1.1 0.2 0.5 0.1 0.8 0.5z"/>
			</g>
		</g>
	</g>
	<g id="Layer">
		<g id="Layer">
			<g id="Layer">
				<path id="Layer" class="s2" d="m165.5 118q0.4 0 0.7-0.2 0.2-0.1 0.4-0.3 0.2-0.2 0.3-0.5 0.1-0.3 0.1-0.7v-4h1.2v4q0 0.6-0.1 1.1-0.2 0.5-0.6 0.9-0.3 0.3-0.8 0.5-0.5 0.2-1.2 0.2-0.6 0-1.1-0.2-0.5-0.2-0.9-0.5-0.3-0.4-0.5-0.9-0.2-0.5-0.2-1.1v-4h1.2v4q0 0.4 0.1 0.7 0.1 0.3 0.3 0.5 0.2 0.2 0.5 0.3 0.3 0.2 0.6 0.2z"/>
			</g>
		</g>
	</g>
	<g id="Layer">
		<g id="Layer">
			<g id="Layer">
				<path id="Layer" class="s2" d="m172 117.9h2.6v1h-3.8v-6.6h1.2z"/>
			</g>
		</g>
	</g>
	<g id="Layer">
		<g id="Layer">
			<g id="Layer">
				<path id="Layer" class="s2" d="m181.4 112.3v1.1h-2v5.5h-1.2v-5.5h-2v-1.1z"/>
			</g>
		</g>
	</g>
	<g id="Layer">
		<g id="Layer">
			<g id="Layer">
				<path id="Layer" class="s2" d="m184.8 118.9h-1.2v-6.6h1.2z"/>
			</g>
		</g>
	</g>
	<g id="Layer">
		<g id="Layer">
			<g id="Layer">
				<path id="Layer" class="s2" d="m188.2 112.3q0.1 0 0.1 0.1 0.1 0 0.1 0 0.1 0 0.1 0.1 0.1 0 0.1 0l3.5 4.5q0-0.2-0.1-0.4 0-0.1 0-0.2v-4.1h1.1v6.6h-0.6q-0.2 0-0.3 0-0.1-0.1-0.1-0.2l-3.5-4.4q0 0.2 0 0.3 0 0.2 0 0.3v4h-1v-6.6z"/>
			</g>
		</g>
	</g>
	<g id="Layer">
		<g id="Layer">
			<g id="Layer">
				<path id="Layer" class="s2" d="m198.7 118q0.5 0 0.8 0 0.3-0.1 0.6-0.2v-1.2h-0.9q-0.1 0-0.2-0.1 0-0.1 0-0.2v-0.7h2.2v2.7q-0.3 0.2-0.6 0.3-0.2 0.2-0.5 0.2-0.3 0.1-0.7 0.2-0.3 0-0.8 0-0.7 0-1.3-0.2-0.6-0.3-1-0.7-0.5-0.5-0.7-1.1-0.3-0.6-0.3-1.4 0-0.7 0.3-1.3 0.2-0.6 0.7-1.1 0.4-0.4 1-0.7 0.7-0.2 1.5-0.2 0.8 0 1.3 0.2 0.6 0.3 1.1 0.6l-0.4 0.6q-0.1 0.2-0.3 0.2-0.1 0-0.2-0.1-0.2-0.1-0.3-0.2-0.2-0.1-0.3-0.1-0.2-0.1-0.5-0.1-0.2-0.1-0.5-0.1-0.5 0-0.9 0.2-0.4 0.2-0.6 0.5-0.3 0.3-0.5 0.7-0.1 0.4-0.1 0.9 0 0.6 0.1 1.1 0.2 0.4 0.5 0.7 0.3 0.3 0.7 0.5 0.4 0.1 0.8 0.1z"/>
			</g>
		</g>
	</g>
	<g id="Layer">
		<g id="Layer">
			<g id="Layer">
			</g>
		</g>
	</g>
	<g id="Layer">
		<g id="Layer">
			<g id="Layer">
				<path id="Layer" class="s2" d="m211.1 117.4q0.1 0 0.2 0.1l0.5 0.5q-0.4 0.5-1 0.8-0.6 0.2-1.4 0.2-0.7 0-1.3-0.2-0.6-0.3-1-0.7-0.4-0.5-0.7-1.1-0.2-0.6-0.2-1.4 0-0.7 0.3-1.3 0.2-0.6 0.7-1.1 0.4-0.4 1-0.7 0.6-0.2 1.4-0.2 0.7 0 1.3 0.2 0.5 0.3 0.9 0.6l-0.4 0.6q0 0.1-0.1 0.1 0 0-0.1 0-0.1 0-0.2 0-0.2-0.1-0.3-0.2-0.2-0.1-0.5-0.2-0.2-0.1-0.6-0.1-0.5 0-0.9 0.2-0.4 0.1-0.6 0.5-0.3 0.3-0.5 0.7-0.1 0.4-0.1 0.9 0 0.6 0.1 1 0.2 0.5 0.4 0.8 0.3 0.3 0.7 0.4 0.3 0.2 0.8 0.2 0.2 0 0.4 0 0.2-0.1 0.4-0.1 0.2-0.1 0.3-0.2 0.2-0.1 0.3-0.2 0.1-0.1 0.1-0.1 0.1 0 0.1 0z"/>
			</g>
		</g>
	</g>
	<g id="Layer">
		<g id="Layer">
			<g id="Layer">
				<path id="Layer" fill-rule="evenodd" class="s2" d="m220.3 115.6q0 0.8-0.3 1.4-0.2 0.6-0.6 1.1-0.5 0.4-1.1 0.7-0.6 0.2-1.3 0.2-0.8 0-1.4-0.2-0.6-0.3-1.1-0.7-0.4-0.5-0.6-1.1-0.3-0.6-0.3-1.4 0-0.7 0.3-1.3 0.2-0.6 0.6-1.1 0.5-0.4 1.1-0.7 0.6-0.2 1.4-0.2 0.7 0 1.3 0.2 0.6 0.3 1.1 0.7 0.4 0.5 0.6 1.1 0.3 0.6 0.3 1.3zm-1.3 0q0-0.5-0.1-0.9-0.2-0.5-0.4-0.8-0.3-0.3-0.7-0.4-0.4-0.2-0.8-0.2-0.5 0-0.9 0.2-0.4 0.1-0.7 0.4-0.2 0.3-0.4 0.8-0.1 0.4-0.1 0.9 0 0.6 0.1 1 0.2 0.5 0.4 0.7 0.3 0.3 0.7 0.5 0.4 0.2 0.9 0.2 0.4 0 0.8-0.2 0.4-0.2 0.7-0.5 0.2-0.2 0.4-0.7 0.1-0.4 0.1-1z"/>
			</g>
		</g>
	</g>
	<g id="Layer">
		<g id="Layer">
			<g id="Layer">
				<path id="Layer" class="s2" d="m225.8 116.2q0.1 0.1 0.2 0.3 0 0.2 0.1 0.3 0.1-0.1 0.1-0.3 0.1-0.2 0.2-0.3l1.9-3.7q0.1 0 0.1-0.1 0.1 0 0.1 0 0 0 0.1 0 0.1-0.1 0.1-0.1h1v6.6h-1.1v-4.2q0-0.1 0-0.3 0-0.1 0-0.3l-2 3.8q0 0.1-0.1 0.2-0.2 0-0.3 0h-0.2q-0.1 0-0.2 0-0.1-0.1-0.2-0.2l-2-3.8q0 0.2 0 0.3 0 0.2 0 0.3v4.2h-1.1v-6.6h1q0 0 0.1 0.1 0.1 0 0.1 0 0 0 0.1 0 0 0.1 0.1 0.1z"/>
			</g>
		</g>
	</g>
	<g id="Layer">
		<g id="Layer">
			<g id="Layer">
				<path id="Layer" fill-rule="evenodd" class="s2" d="m233.5 116.6v2.3h-1.2v-6.6h2.1q0.7 0 1.2 0.2 0.5 0.2 0.8 0.4 0.3 0.3 0.4 0.7 0.2 0.4 0.2 0.9 0 0.4-0.2 0.8-0.1 0.4-0.4 0.7-0.4 0.3-0.8 0.5-0.5 0.1-1.2 0.1zm0-0.9h0.9q0.4 0 0.6-0.1 0.3-0.1 0.4-0.3 0.2-0.1 0.3-0.3 0.1-0.3 0.1-0.5 0-0.3-0.1-0.5-0.1-0.2-0.3-0.4-0.1-0.1-0.4-0.2-0.2-0.1-0.6-0.1h-0.9z"/>
			</g>
		</g>
	</g>
	<g id="Layer">
		<g id="Layer">
			<g id="Layer">
				<path id="Layer" fill-rule="evenodd" class="s2" d="m245 118.9h-0.9q-0.2 0-0.3 0-0.1-0.1-0.1-0.2l-0.5-1.4h-2.8l-0.5 1.4q0 0.1-0.1 0.2-0.1 0-0.3 0h-0.9l2.6-6.6h1.2zm-4.2-2.4h2.1l-0.9-2.2q0-0.2-0.1-0.4 0-0.2-0.1-0.4-0.1 0.2-0.1 0.4-0.1 0.2-0.1 0.4z"/>
			</g>
		</g>
	</g>
	<g id="Layer">
		<g id="Layer">
			<g id="Layer">
				<path id="Layer" class="s2" d="m247.6 112.3q0.1 0 0.1 0.1 0.1 0 0.1 0 0.1 0 0.1 0.1 0.1 0 0.1 0l3.5 4.5q-0.1-0.2-0.1-0.4 0-0.1 0-0.2v-4.1h1.1v6.6h-0.6q-0.2 0-0.3 0-0.1-0.1-0.1-0.2l-3.5-4.4q0 0.2 0 0.3 0 0.2 0 0.3v4h-1v-6.6z"/>
			</g>
		</g>
	</g>
	<g id="Layer">
		<g id="Layer">
			<g id="Layer">
				<path id="Layer" class="s2" d="m258 116.4v2.5h-1.2v-2.5l-2.4-4.1h1.1q0.1 0 0.2 0.1 0.1 0.1 0.2 0.2l1.2 2.2q0.1 0.2 0.2 0.4 0.1 0.2 0.1 0.3 0.1-0.1 0.2-0.3 0-0.2 0.1-0.4l1.2-2.2q0.1-0.1 0.2-0.2 0.1-0.1 0.3-0.1h1z"/>
			</g>
		</g>
	</g>
</svg>