<svg xmlns="http://www.w3.org/2000/svg" xmlns:xlink="http://www.w3.org/1999/xlink" width="500" zoomAndPan="magnify" viewBox="0 0 375 374.999991" height="500" preserveAspectRatio="xMidYMid meet" version="1.0"><defs><g/><clipPath id="29d8f42f42"><path d="M 79.515625 145.902344 L 295.515625 145.902344 L 295.515625 169 L 79.515625 169 Z M 79.515625 145.902344 " clip-rule="nonzero"/></clipPath><clipPath id="559b12b22a"><path d="M 79.515625 218 L 295.515625 218 L 295.515625 239.652344 L 79.515625 239.652344 Z M 79.515625 218 " clip-rule="nonzero"/></clipPath></defs><rect x="-37.5" width="450" fill="#ffffff" y="-37.499999" height="449.999989" fill-opacity="1"/><rect x="-37.5" width="450" fill="#000000" y="-37.499999" height="449.999989" fill-opacity="1"/><g clip-path="url(#29d8f42f42)"><path fill="#fe7a04" d="M 82.3125 148.382812 L 292.683594 148.382812 L 292.683594 168.640625 L 295.164062 168.640625 L 295.164062 145.902344 L 79.832031 145.902344 L 79.832031 168.640625 L 82.3125 168.640625 Z M 82.3125 148.382812 " fill-opacity="1" fill-rule="nonzero"/></g><g clip-path="url(#559b12b22a)"><path fill="#fe7a04" d="M 292.683594 237.113281 L 82.3125 237.113281 L 82.3125 218.09375 L 79.832031 218.09375 L 79.832031 239.59375 L 295.164062 239.59375 L 295.164062 218.09375 L 292.683594 218.09375 Z M 292.683594 237.113281 " fill-opacity="1" fill-rule="nonzero"/></g><g fill="#ffffff" fill-opacity="1"><g transform="translate(105.482191, 190.177663)"><g><path d="M 15.203125 -5.71875 C 15.203125 -4.851562 15.03125 -4.050781 14.6875 -3.3125 C 14.34375 -2.582031 13.835938 -1.9375 13.171875 -1.375 C 11.847656 -0.269531 10.148438 0.28125 8.078125 0.28125 C 6.460938 0.28125 5.003906 -0.046875 3.703125 -0.703125 C 2.398438 -1.367188 1.441406 -2.253906 0.828125 -3.359375 L 3.390625 -4.6875 C 3.773438 -4 4.382812 -3.46875 5.21875 -3.09375 C 6.050781 -2.71875 7.003906 -2.53125 8.078125 -2.53125 C 10.859375 -2.53125 12.25 -3.59375 12.25 -5.71875 C 12.25 -6.125 12.175781 -6.46875 12.03125 -6.75 C 11.882812 -7.039062 11.671875 -7.3125 11.390625 -7.5625 C 10.691406 -8.132812 9.453125 -8.648438 7.671875 -9.109375 C 6.597656 -9.378906 5.6875 -9.675781 4.9375 -10 C 4.195312 -10.332031 3.578125 -10.71875 3.078125 -11.15625 C 1.867188 -12.132812 1.265625 -13.425781 1.265625 -15.03125 C 1.265625 -15.84375 1.421875 -16.597656 1.734375 -17.296875 C 2.054688 -17.992188 2.503906 -18.601562 3.078125 -19.125 C 3.671875 -19.632812 4.363281 -20.019531 5.15625 -20.28125 C 5.957031 -20.539062 6.835938 -20.671875 7.796875 -20.671875 C 9.191406 -20.671875 10.476562 -20.398438 11.65625 -19.859375 C 12.832031 -19.328125 13.726562 -18.570312 14.34375 -17.59375 L 12.015625 -16.15625 C 11.460938 -16.820312 10.820312 -17.296875 10.09375 -17.578125 C 9.363281 -17.859375 8.597656 -18 7.796875 -18 C 7.210938 -18 6.679688 -17.898438 6.203125 -17.703125 C 5.722656 -17.515625 5.320312 -17.285156 5 -17.015625 C 4.726562 -16.785156 4.53125 -16.503906 4.40625 -16.171875 C 4.28125 -15.835938 4.21875 -15.476562 4.21875 -15.09375 C 4.21875 -14.84375 4.253906 -14.585938 4.328125 -14.328125 C 4.410156 -14.066406 4.59375 -13.796875 4.875 -13.515625 C 5.164062 -13.242188 5.585938 -12.976562 6.140625 -12.71875 C 6.703125 -12.457031 7.460938 -12.203125 8.421875 -11.953125 C 9.578125 -11.671875 10.546875 -11.359375 11.328125 -11.015625 C 12.109375 -10.679688 12.769531 -10.285156 13.3125 -9.828125 C 14.570312 -8.796875 15.203125 -7.425781 15.203125 -5.71875 Z M 15.203125 -5.71875 "/></g></g></g><g fill="#ffffff" fill-opacity="1"><g transform="translate(128.479504, 190.177663)"><g><path d="M 7.125 -17.90625 L 7.125 -2.46875 L 8.625 -2.46875 L 8.625 0 L 2.609375 0 L 2.609375 -2.46875 L 4.140625 -2.46875 L 4.140625 -17.90625 L 2.609375 -17.90625 L 2.609375 -20.390625 L 8.625 -20.390625 L 8.625 -17.90625 Z M 7.125 -17.90625 "/></g></g></g><g fill="#ffffff" fill-opacity="1"><g transform="translate(146.101287, 190.177663)"><g><path d="M 19.171875 -20.390625 L 19.171875 0 L 16.125 0 L 4.75 -15.640625 L 4.75 0 L 1.609375 0 L 1.609375 -20.390625 L 4.765625 -20.390625 L 16.15625 -4.65625 L 16.15625 -20.390625 Z M 19.171875 -20.390625 "/></g></g></g><g fill="#ffffff" fill-opacity="1"><g transform="translate(173.266778, 190.177663)"><g><path d="M 1.71875 0 L 1.71875 -20.390625 L 8.96875 -20.390625 C 10.445312 -20.390625 11.75 -20.117188 12.875 -19.578125 C 14.007812 -19.046875 14.953125 -18.316406 15.703125 -17.390625 C 16.460938 -16.472656 17.039062 -15.390625 17.4375 -14.140625 C 17.832031 -12.898438 18.03125 -11.578125 18.03125 -10.171875 C 18.03125 -8.753906 17.820312 -7.425781 17.40625 -6.1875 C 17 -4.957031 16.429688 -3.878906 15.703125 -2.953125 C 14.972656 -2.035156 14.109375 -1.3125 13.109375 -0.78125 C 12.109375 -0.257812 11.035156 0 9.890625 0 Z M 8.859375 -2.78125 C 9.953125 -2.78125 10.878906 -2.984375 11.640625 -3.390625 C 12.410156 -3.796875 13.039062 -4.332031 13.53125 -5 C 14.03125 -5.675781 14.394531 -6.460938 14.625 -7.359375 C 14.863281 -8.265625 14.984375 -9.203125 14.984375 -10.171875 C 14.984375 -11.148438 14.863281 -12.09375 14.625 -13 C 14.394531 -13.914062 14.035156 -14.71875 13.546875 -15.40625 C 13.066406 -16.09375 12.4375 -16.644531 11.65625 -17.0625 C 10.882812 -17.476562 9.953125 -17.6875 8.859375 -17.6875 L 4.75 -17.6875 L 4.75 -2.78125 Z M 8.859375 -2.78125 "/></g></g></g><g fill="#ffffff" fill-opacity="1"><g transform="translate(199.081202, 190.177663)"><g><path d="M 16.046875 -5.6875 C 16.046875 -4.90625 15.894531 -4.164062 15.59375 -3.46875 C 15.300781 -2.78125 14.894531 -2.175781 14.375 -1.65625 C 13.851562 -1.144531 13.242188 -0.738281 12.546875 -0.4375 C 11.847656 -0.144531 11.109375 0 10.328125 0 L 1.609375 0 L 1.609375 -20.390625 L 9.578125 -20.390625 C 10.265625 -20.390625 10.914062 -20.253906 11.53125 -19.984375 C 12.144531 -19.710938 12.679688 -19.347656 13.140625 -18.890625 C 13.597656 -18.429688 13.960938 -17.890625 14.234375 -17.265625 C 14.503906 -16.640625 14.640625 -15.972656 14.640625 -15.265625 C 14.640625 -14.378906 14.492188 -13.578125 14.203125 -12.859375 C 13.910156 -12.140625 13.441406 -11.535156 12.796875 -11.046875 C 13.890625 -10.640625 14.703125 -9.953125 15.234375 -8.984375 C 15.773438 -8.015625 16.046875 -6.914062 16.046875 -5.6875 Z M 4.59375 -12.125 C 5.363281 -12.113281 6.078125 -12.109375 6.734375 -12.109375 L 9.609375 -12.109375 C 10.328125 -12.109375 10.9375 -12.378906 11.4375 -12.921875 C 11.9375 -13.472656 12.1875 -14.128906 12.1875 -14.890625 C 12.1875 -15.679688 11.9375 -16.34375 11.4375 -16.875 C 10.9375 -17.414062 10.328125 -17.6875 9.609375 -17.6875 L 4.59375 -17.6875 Z M 4.59375 -2.78125 C 4.726562 -2.769531 5.023438 -2.765625 5.484375 -2.765625 L 10.328125 -2.765625 C 10.722656 -2.765625 11.097656 -2.847656 11.453125 -3.015625 C 11.804688 -3.191406 12.117188 -3.425781 12.390625 -3.71875 C 12.660156 -4.019531 12.867188 -4.367188 13.015625 -4.765625 C 13.171875 -5.171875 13.25 -5.601562 13.25 -6.0625 C 13.25 -6.519531 13.171875 -6.945312 13.015625 -7.34375 C 12.867188 -7.738281 12.660156 -8.082031 12.390625 -8.375 C 12.117188 -8.675781 11.804688 -8.910156 11.453125 -9.078125 C 11.097656 -9.253906 10.722656 -9.34375 10.328125 -9.34375 L 4.59375 -9.34375 Z M 4.59375 -2.78125 "/></g></g></g><g fill="#ffffff" fill-opacity="1"><g transform="translate(222.653432, 190.177663)"><g><path d="M 3.59375 0 L 0.3125 0 L 8.796875 -20.390625 L 12.109375 -20.390625 L 20.578125 0 L 17.34375 0 L 14.65625 -6.375 L 6.234375 -6.375 Z M 7.390625 -9.140625 L 13.515625 -9.140625 L 10.46875 -16.5 Z M 7.390625 -9.140625 "/></g></g></g><g fill="#ffffff" fill-opacity="1"><g transform="translate(250.020157, 190.177663)"><g><path d="M 1.71875 0 L 1.71875 -20.390625 L 8.96875 -20.390625 C 10.445312 -20.390625 11.75 -20.117188 12.875 -19.578125 C 14.007812 -19.046875 14.953125 -18.316406 15.703125 -17.390625 C 16.460938 -16.472656 17.039062 -15.390625 17.4375 -14.140625 C 17.832031 -12.898438 18.03125 -11.578125 18.03125 -10.171875 C 18.03125 -8.753906 17.820312 -7.425781 17.40625 -6.1875 C 17 -4.957031 16.429688 -3.878906 15.703125 -2.953125 C 14.972656 -2.035156 14.109375 -1.3125 13.109375 -0.78125 C 12.109375 -0.257812 11.035156 0 9.890625 0 Z M 8.859375 -2.78125 C 9.953125 -2.78125 10.878906 -2.984375 11.640625 -3.390625 C 12.410156 -3.796875 13.039062 -4.332031 13.53125 -5 C 14.03125 -5.675781 14.394531 -6.460938 14.625 -7.359375 C 14.863281 -8.265625 14.984375 -9.203125 14.984375 -10.171875 C 14.984375 -11.148438 14.863281 -12.09375 14.625 -13 C 14.394531 -13.914062 14.035156 -14.71875 13.546875 -15.40625 C 13.066406 -16.09375 12.4375 -16.644531 11.65625 -17.0625 C 10.882812 -17.476562 9.953125 -17.6875 8.859375 -17.6875 L 4.75 -17.6875 L 4.75 -2.78125 Z M 8.859375 -2.78125 "/></g></g></g><g fill="#fe7a04" fill-opacity="1"><g transform="translate(73.573339, 207.938835)"><g><path d="M 5.3125 -6.59375 L 5.3125 -5.578125 L 3.328125 -5.578125 L 3.328125 0 L 2.09375 0 L 2.09375 -5.578125 L 0.109375 -5.578125 L 0.109375 -6.59375 Z M 5.3125 -6.59375 "/></g></g></g><g fill="#fe7a04" fill-opacity="1"><g transform="translate(80.261811, 207.938835)"><g><path d="M 6.21875 0 L 4.984375 0 L 4.984375 -2.875 L 1.90625 -2.875 L 1.90625 0 L 0.671875 0 L 0.671875 -6.59375 L 1.90625 -6.59375 L 1.90625 -3.75 L 4.984375 -3.75 L 4.984375 -6.59375 L 6.21875 -6.59375 Z M 6.21875 0 "/></g></g></g><g fill="#fe7a04" fill-opacity="1"><g transform="translate(88.415206, 207.938835)"><g><path d="M 4.8125 -6.59375 L 4.8125 -5.609375 L 1.90625 -5.609375 L 1.90625 -3.78125 L 4.203125 -3.78125 L 4.203125 -2.84375 L 1.90625 -2.84375 L 1.90625 -0.984375 L 4.8125 -0.984375 L 4.8125 0 L 0.671875 0 L 0.671875 -6.59375 Z M 4.8125 -6.59375 "/></g></g></g><g fill="#fe7a04" fill-opacity="1"><g transform="translate(94.898943, 207.938835)"><g/></g></g><g fill="#fe7a04" fill-opacity="1"><g transform="translate(97.92964, 207.938835)"><g><path d="M 1.9375 -2.578125 L 1.9375 0 L 0.703125 0 L 0.703125 -6.59375 L 2.71875 -6.59375 C 3.164062 -6.59375 3.546875 -6.546875 3.859375 -6.453125 C 4.179688 -6.359375 4.445312 -6.226562 4.65625 -6.0625 C 4.863281 -5.894531 5.015625 -5.691406 5.109375 -5.453125 C 5.203125 -5.222656 5.25 -4.96875 5.25 -4.6875 C 5.25 -4.46875 5.21875 -4.257812 5.15625 -4.0625 C 5.09375 -3.863281 5 -3.679688 4.875 -3.515625 C 4.75 -3.359375 4.59375 -3.21875 4.40625 -3.09375 C 4.226562 -2.976562 4.023438 -2.882812 3.796875 -2.8125 C 3.953125 -2.71875 4.085938 -2.59375 4.203125 -2.4375 L 5.84375 0 L 4.75 0 C 4.644531 0 4.550781 -0.0195312 4.46875 -0.0625 C 4.394531 -0.101562 4.332031 -0.164062 4.28125 -0.25 L 2.90625 -2.359375 C 2.851562 -2.429688 2.796875 -2.484375 2.734375 -2.515625 C 2.671875 -2.554688 2.578125 -2.578125 2.453125 -2.578125 Z M 1.9375 -3.453125 L 2.703125 -3.453125 C 2.929688 -3.453125 3.128906 -3.476562 3.296875 -3.53125 C 3.472656 -3.59375 3.613281 -3.675781 3.71875 -3.78125 C 3.832031 -3.882812 3.914062 -4.003906 3.96875 -4.140625 C 4.019531 -4.273438 4.046875 -4.425781 4.046875 -4.59375 C 4.046875 -4.925781 3.9375 -5.179688 3.71875 -5.359375 C 3.5 -5.546875 3.164062 -5.640625 2.71875 -5.640625 L 1.9375 -5.640625 Z M 1.9375 -3.453125 "/></g></g></g><g fill="#fe7a04" fill-opacity="1"><g transform="translate(105.164048, 207.938835)"><g><path d="M 4.8125 -6.59375 L 4.8125 -5.609375 L 1.90625 -5.609375 L 1.90625 -3.78125 L 4.203125 -3.78125 L 4.203125 -2.84375 L 1.90625 -2.84375 L 1.90625 -0.984375 L 4.8125 -0.984375 L 4.8125 0 L 0.671875 0 L 0.671875 -6.59375 Z M 4.8125 -6.59375 "/></g></g></g><g fill="#fe7a04" fill-opacity="1"><g transform="translate(111.647786, 207.938835)"><g><path d="M 4.1875 -5.390625 C 4.15625 -5.316406 4.117188 -5.265625 4.078125 -5.234375 C 4.035156 -5.210938 3.984375 -5.203125 3.921875 -5.203125 C 3.859375 -5.203125 3.789062 -5.222656 3.71875 -5.265625 C 3.644531 -5.316406 3.554688 -5.367188 3.453125 -5.421875 C 3.347656 -5.484375 3.222656 -5.535156 3.078125 -5.578125 C 2.941406 -5.628906 2.78125 -5.65625 2.59375 -5.65625 C 2.425781 -5.65625 2.28125 -5.632812 2.15625 -5.59375 C 2.03125 -5.550781 1.921875 -5.492188 1.828125 -5.421875 C 1.742188 -5.347656 1.679688 -5.257812 1.640625 -5.15625 C 1.597656 -5.0625 1.578125 -4.953125 1.578125 -4.828125 C 1.578125 -4.671875 1.617188 -4.539062 1.703125 -4.4375 C 1.785156 -4.34375 1.898438 -4.257812 2.046875 -4.1875 C 2.191406 -4.113281 2.351562 -4.046875 2.53125 -3.984375 C 2.71875 -3.929688 2.90625 -3.867188 3.09375 -3.796875 C 3.28125 -3.734375 3.460938 -3.65625 3.640625 -3.5625 C 3.828125 -3.476562 3.992188 -3.367188 4.140625 -3.234375 C 4.285156 -3.109375 4.398438 -2.945312 4.484375 -2.75 C 4.566406 -2.5625 4.609375 -2.332031 4.609375 -2.0625 C 4.609375 -1.757812 4.554688 -1.476562 4.453125 -1.21875 C 4.359375 -0.96875 4.210938 -0.742188 4.015625 -0.546875 C 3.816406 -0.359375 3.578125 -0.207031 3.296875 -0.09375 C 3.015625 0.0195312 2.691406 0.078125 2.328125 0.078125 C 2.117188 0.078125 1.910156 0.0546875 1.703125 0.015625 C 1.503906 -0.0234375 1.3125 -0.0820312 1.125 -0.15625 C 0.9375 -0.238281 0.757812 -0.332031 0.59375 -0.4375 C 0.4375 -0.539062 0.289062 -0.660156 0.15625 -0.796875 L 0.515625 -1.375 C 0.546875 -1.414062 0.582031 -1.453125 0.625 -1.484375 C 0.675781 -1.515625 0.734375 -1.53125 0.796875 -1.53125 C 0.867188 -1.53125 0.945312 -1.5 1.03125 -1.4375 C 1.125 -1.375 1.226562 -1.300781 1.34375 -1.21875 C 1.46875 -1.144531 1.609375 -1.078125 1.765625 -1.015625 C 1.929688 -0.953125 2.128906 -0.921875 2.359375 -0.921875 C 2.710938 -0.921875 2.984375 -1.003906 3.171875 -1.171875 C 3.367188 -1.335938 3.46875 -1.578125 3.46875 -1.890625 C 3.46875 -2.066406 3.421875 -2.207031 3.328125 -2.3125 C 3.242188 -2.425781 3.128906 -2.519531 2.984375 -2.59375 C 2.847656 -2.664062 2.6875 -2.726562 2.5 -2.78125 C 2.320312 -2.832031 2.132812 -2.882812 1.9375 -2.9375 C 1.75 -3 1.5625 -3.070312 1.375 -3.15625 C 1.195312 -3.25 1.035156 -3.363281 0.890625 -3.5 C 0.753906 -3.632812 0.640625 -3.800781 0.546875 -4 C 0.460938 -4.207031 0.421875 -4.460938 0.421875 -4.765625 C 0.421875 -5.003906 0.46875 -5.238281 0.5625 -5.46875 C 0.664062 -5.695312 0.804688 -5.898438 0.984375 -6.078125 C 1.171875 -6.253906 1.394531 -6.394531 1.65625 -6.5 C 1.925781 -6.601562 2.234375 -6.65625 2.578125 -6.65625 C 2.972656 -6.65625 3.332031 -6.59375 3.65625 -6.46875 C 3.988281 -6.351562 4.269531 -6.1875 4.5 -5.96875 Z M 4.1875 -5.390625 "/></g></g></g><g fill="#fe7a04" fill-opacity="1"><g transform="translate(117.803959, 207.938835)"><g><path d="M 5.3125 -6.59375 L 5.3125 -5.578125 L 3.328125 -5.578125 L 3.328125 0 L 2.09375 0 L 2.09375 -5.578125 L 0.109375 -5.578125 L 0.109375 -6.59375 Z M 5.3125 -6.59375 "/></g></g></g><g fill="#fe7a04" fill-opacity="1"><g transform="translate(124.492431, 207.938835)"><g><path d="M 6.453125 0 L 5.5 0 C 5.394531 0 5.304688 -0.0234375 5.234375 -0.078125 C 5.171875 -0.128906 5.125 -0.195312 5.09375 -0.28125 L 4.609375 -1.625 L 1.875 -1.625 L 1.390625 -0.28125 C 1.359375 -0.207031 1.304688 -0.140625 1.234375 -0.078125 C 1.171875 -0.0234375 1.085938 0 0.984375 0 L 0.03125 0 L 2.609375 -6.59375 L 3.859375 -6.59375 Z M 2.1875 -2.484375 L 4.296875 -2.484375 L 3.484375 -4.671875 C 3.453125 -4.773438 3.410156 -4.890625 3.359375 -5.015625 C 3.316406 -5.148438 3.273438 -5.296875 3.234375 -5.453125 C 3.191406 -5.296875 3.148438 -5.148438 3.109375 -5.015625 C 3.066406 -4.878906 3.03125 -4.765625 3 -4.671875 Z M 2.1875 -2.484375 "/></g></g></g><g fill="#fe7a04" fill-opacity="1"><g transform="translate(132.227276, 207.938835)"><g><path d="M 3.3125 -0.984375 C 3.550781 -0.984375 3.765625 -1.019531 3.953125 -1.09375 C 4.140625 -1.175781 4.296875 -1.289062 4.421875 -1.4375 C 4.554688 -1.582031 4.65625 -1.753906 4.71875 -1.953125 C 4.789062 -2.160156 4.828125 -2.390625 4.828125 -2.640625 L 4.828125 -6.59375 L 6.046875 -6.59375 L 6.046875 -2.640625 C 6.046875 -2.242188 5.984375 -1.878906 5.859375 -1.546875 C 5.734375 -1.222656 5.550781 -0.9375 5.3125 -0.6875 C 5.070312 -0.445312 4.785156 -0.257812 4.453125 -0.125 C 4.117188 0.0078125 3.738281 0.078125 3.3125 0.078125 C 2.894531 0.078125 2.515625 0.0078125 2.171875 -0.125 C 1.835938 -0.257812 1.550781 -0.445312 1.3125 -0.6875 C 1.082031 -0.9375 0.90625 -1.222656 0.78125 -1.546875 C 0.65625 -1.878906 0.59375 -2.242188 0.59375 -2.640625 L 0.59375 -6.59375 L 1.8125 -6.59375 L 1.8125 -2.640625 C 1.8125 -2.390625 1.84375 -2.160156 1.90625 -1.953125 C 1.976562 -1.753906 2.078125 -1.582031 2.203125 -1.4375 C 2.335938 -1.289062 2.492188 -1.175781 2.671875 -1.09375 C 2.859375 -1.019531 3.070312 -0.984375 3.3125 -0.984375 Z M 3.3125 -0.984375 "/></g></g></g><g fill="#fe7a04" fill-opacity="1"><g transform="translate(140.125902, 207.938835)"><g><path d="M 1.9375 -2.578125 L 1.9375 0 L 0.703125 0 L 0.703125 -6.59375 L 2.71875 -6.59375 C 3.164062 -6.59375 3.546875 -6.546875 3.859375 -6.453125 C 4.179688 -6.359375 4.445312 -6.226562 4.65625 -6.0625 C 4.863281 -5.894531 5.015625 -5.691406 5.109375 -5.453125 C 5.203125 -5.222656 5.25 -4.96875 5.25 -4.6875 C 5.25 -4.46875 5.21875 -4.257812 5.15625 -4.0625 C 5.09375 -3.863281 5 -3.679688 4.875 -3.515625 C 4.75 -3.359375 4.59375 -3.21875 4.40625 -3.09375 C 4.226562 -2.976562 4.023438 -2.882812 3.796875 -2.8125 C 3.953125 -2.71875 4.085938 -2.59375 4.203125 -2.4375 L 5.84375 0 L 4.75 0 C 4.644531 0 4.550781 -0.0195312 4.46875 -0.0625 C 4.394531 -0.101562 4.332031 -0.164062 4.28125 -0.25 L 2.90625 -2.359375 C 2.851562 -2.429688 2.796875 -2.484375 2.734375 -2.515625 C 2.671875 -2.554688 2.578125 -2.578125 2.453125 -2.578125 Z M 1.9375 -3.453125 L 2.703125 -3.453125 C 2.929688 -3.453125 3.128906 -3.476562 3.296875 -3.53125 C 3.472656 -3.59375 3.613281 -3.675781 3.71875 -3.78125 C 3.832031 -3.882812 3.914062 -4.003906 3.96875 -4.140625 C 4.019531 -4.273438 4.046875 -4.425781 4.046875 -4.59375 C 4.046875 -4.925781 3.9375 -5.179688 3.71875 -5.359375 C 3.5 -5.546875 3.164062 -5.640625 2.71875 -5.640625 L 1.9375 -5.640625 Z M 1.9375 -3.453125 "/></g></g></g><g fill="#fe7a04" fill-opacity="1"><g transform="translate(147.36031, 207.938835)"><g><path d="M 6.453125 0 L 5.5 0 C 5.394531 0 5.304688 -0.0234375 5.234375 -0.078125 C 5.171875 -0.128906 5.125 -0.195312 5.09375 -0.28125 L 4.609375 -1.625 L 1.875 -1.625 L 1.390625 -0.28125 C 1.359375 -0.207031 1.304688 -0.140625 1.234375 -0.078125 C 1.171875 -0.0234375 1.085938 0 0.984375 0 L 0.03125 0 L 2.609375 -6.59375 L 3.859375 -6.59375 Z M 2.1875 -2.484375 L 4.296875 -2.484375 L 3.484375 -4.671875 C 3.453125 -4.773438 3.410156 -4.890625 3.359375 -5.015625 C 3.316406 -5.148438 3.273438 -5.296875 3.234375 -5.453125 C 3.191406 -5.296875 3.148438 -5.148438 3.109375 -5.015625 C 3.066406 -4.878906 3.03125 -4.765625 3 -4.671875 Z M 2.1875 -2.484375 "/></g></g></g><g fill="#fe7a04" fill-opacity="1"><g transform="translate(155.095155, 207.938835)"><g><path d="M 1.3125 -6.59375 C 1.363281 -6.59375 1.40625 -6.585938 1.4375 -6.578125 C 1.476562 -6.578125 1.507812 -6.566406 1.53125 -6.546875 C 1.5625 -6.535156 1.59375 -6.515625 1.625 -6.484375 C 1.65625 -6.460938 1.6875 -6.429688 1.71875 -6.390625 L 5.171875 -1.984375 C 5.160156 -2.085938 5.148438 -2.191406 5.140625 -2.296875 C 5.140625 -2.398438 5.140625 -2.492188 5.140625 -2.578125 L 5.140625 -6.59375 L 6.21875 -6.59375 L 6.21875 0 L 5.59375 0 C 5.488281 0 5.40625 -0.015625 5.34375 -0.046875 C 5.28125 -0.078125 5.21875 -0.128906 5.15625 -0.203125 L 1.71875 -4.59375 C 1.726562 -4.5 1.734375 -4.398438 1.734375 -4.296875 C 1.742188 -4.203125 1.75 -4.117188 1.75 -4.046875 L 1.75 0 L 0.671875 0 L 0.671875 -6.59375 Z M 1.3125 -6.59375 "/></g></g></g><g fill="#fe7a04" fill-opacity="1"><g transform="translate(163.248551, 207.938835)"><g><path d="M 5.3125 -6.59375 L 5.3125 -5.578125 L 3.328125 -5.578125 L 3.328125 0 L 2.09375 0 L 2.09375 -5.578125 L 0.109375 -5.578125 L 0.109375 -6.59375 Z M 5.3125 -6.59375 "/></g></g></g><g fill="#fe7a04" fill-opacity="1"><g transform="translate(169.937018, 207.938835)"><g/></g></g><g fill="#fe7a04" fill-opacity="1"><g transform="translate(172.96771, 207.938835)"><g><path d="M 5.1875 -1.546875 C 5.257812 -1.546875 5.316406 -1.519531 5.359375 -1.46875 L 5.84375 -0.953125 C 5.582031 -0.617188 5.253906 -0.363281 4.859375 -0.1875 C 4.472656 -0.0078125 4.003906 0.078125 3.453125 0.078125 C 2.960938 0.078125 2.519531 -0.00390625 2.125 -0.171875 C 1.738281 -0.335938 1.40625 -0.570312 1.125 -0.875 C 0.851562 -1.175781 0.644531 -1.53125 0.5 -1.9375 C 0.351562 -2.351562 0.28125 -2.804688 0.28125 -3.296875 C 0.28125 -3.785156 0.363281 -4.234375 0.53125 -4.640625 C 0.695312 -5.054688 0.925781 -5.410156 1.21875 -5.703125 C 1.519531 -6.003906 1.875 -6.238281 2.28125 -6.40625 C 2.695312 -6.570312 3.15625 -6.65625 3.65625 -6.65625 C 4.144531 -6.65625 4.570312 -6.578125 4.9375 -6.421875 C 5.3125 -6.265625 5.628906 -6.054688 5.890625 -5.796875 L 5.46875 -5.234375 C 5.445312 -5.191406 5.414062 -5.15625 5.375 -5.125 C 5.34375 -5.101562 5.289062 -5.09375 5.21875 -5.09375 C 5.15625 -5.09375 5.085938 -5.117188 5.015625 -5.171875 C 4.941406 -5.234375 4.847656 -5.296875 4.734375 -5.359375 C 4.617188 -5.421875 4.472656 -5.476562 4.296875 -5.53125 C 4.128906 -5.582031 3.914062 -5.609375 3.65625 -5.609375 C 3.34375 -5.609375 3.054688 -5.554688 2.796875 -5.453125 C 2.535156 -5.347656 2.3125 -5.191406 2.125 -4.984375 C 1.9375 -4.785156 1.789062 -4.539062 1.6875 -4.25 C 1.582031 -3.96875 1.53125 -3.648438 1.53125 -3.296875 C 1.53125 -2.921875 1.582031 -2.585938 1.6875 -2.296875 C 1.789062 -2.015625 1.929688 -1.773438 2.109375 -1.578125 C 2.296875 -1.378906 2.507812 -1.226562 2.75 -1.125 C 2.988281 -1.019531 3.25 -0.96875 3.53125 -0.96875 C 3.695312 -0.96875 3.847656 -0.972656 3.984375 -0.984375 C 4.117188 -1.003906 4.242188 -1.035156 4.359375 -1.078125 C 4.472656 -1.117188 4.582031 -1.171875 4.6875 -1.234375 C 4.789062 -1.296875 4.890625 -1.375 4.984375 -1.46875 C 5.015625 -1.488281 5.046875 -1.503906 5.078125 -1.515625 C 5.117188 -1.535156 5.15625 -1.546875 5.1875 -1.546875 Z M 5.1875 -1.546875 "/></g></g></g><g fill="#fe7a04" fill-opacity="1"><g transform="translate(180.343139, 207.938835)"><g><path d="M 6.984375 -3.296875 C 6.984375 -2.804688 6.898438 -2.351562 6.734375 -1.9375 C 6.578125 -1.53125 6.351562 -1.175781 6.0625 -0.875 C 5.769531 -0.582031 5.414062 -0.347656 5 -0.171875 C 4.59375 -0.00390625 4.140625 0.078125 3.640625 0.078125 C 3.148438 0.078125 2.695312 -0.00390625 2.28125 -0.171875 C 1.875 -0.347656 1.519531 -0.582031 1.21875 -0.875 C 0.925781 -1.175781 0.703125 -1.53125 0.546875 -1.9375 C 0.390625 -2.351562 0.3125 -2.804688 0.3125 -3.296875 C 0.3125 -3.773438 0.390625 -4.21875 0.546875 -4.625 C 0.703125 -5.039062 0.925781 -5.398438 1.21875 -5.703125 C 1.519531 -6.003906 1.875 -6.238281 2.28125 -6.40625 C 2.695312 -6.570312 3.148438 -6.65625 3.640625 -6.65625 C 4.140625 -6.65625 4.59375 -6.570312 5 -6.40625 C 5.414062 -6.238281 5.769531 -6.003906 6.0625 -5.703125 C 6.351562 -5.398438 6.578125 -5.039062 6.734375 -4.625 C 6.898438 -4.21875 6.984375 -3.773438 6.984375 -3.296875 Z M 5.71875 -3.296875 C 5.71875 -3.648438 5.671875 -3.972656 5.578125 -4.265625 C 5.484375 -4.554688 5.347656 -4.800781 5.171875 -5 C 4.992188 -5.195312 4.773438 -5.347656 4.515625 -5.453125 C 4.253906 -5.554688 3.960938 -5.609375 3.640625 -5.609375 C 3.328125 -5.609375 3.039062 -5.554688 2.78125 -5.453125 C 2.519531 -5.347656 2.296875 -5.195312 2.109375 -5 C 1.929688 -4.800781 1.796875 -4.554688 1.703125 -4.265625 C 1.609375 -3.972656 1.5625 -3.648438 1.5625 -3.296875 C 1.5625 -2.929688 1.609375 -2.601562 1.703125 -2.3125 C 1.796875 -2.03125 1.929688 -1.789062 2.109375 -1.59375 C 2.296875 -1.394531 2.519531 -1.238281 2.78125 -1.125 C 3.039062 -1.019531 3.328125 -0.96875 3.640625 -0.96875 C 3.960938 -0.96875 4.253906 -1.019531 4.515625 -1.125 C 4.773438 -1.238281 4.992188 -1.394531 5.171875 -1.59375 C 5.347656 -1.789062 5.484375 -2.03125 5.578125 -2.3125 C 5.671875 -2.601562 5.71875 -2.929688 5.71875 -3.296875 Z M 5.71875 -3.296875 "/></g></g></g><g fill="#fe7a04" fill-opacity="1"><g transform="translate(188.892336, 207.938835)"><g><path d="M 1.3125 -6.59375 C 1.363281 -6.59375 1.40625 -6.585938 1.4375 -6.578125 C 1.476562 -6.578125 1.507812 -6.566406 1.53125 -6.546875 C 1.5625 -6.535156 1.59375 -6.515625 1.625 -6.484375 C 1.65625 -6.460938 1.6875 -6.429688 1.71875 -6.390625 L 5.171875 -1.984375 C 5.160156 -2.085938 5.148438 -2.191406 5.140625 -2.296875 C 5.140625 -2.398438 5.140625 -2.492188 5.140625 -2.578125 L 5.140625 -6.59375 L 6.21875 -6.59375 L 6.21875 0 L 5.59375 0 C 5.488281 0 5.40625 -0.015625 5.34375 -0.046875 C 5.28125 -0.078125 5.21875 -0.128906 5.15625 -0.203125 L 1.71875 -4.59375 C 1.726562 -4.5 1.734375 -4.398438 1.734375 -4.296875 C 1.742188 -4.203125 1.75 -4.117188 1.75 -4.046875 L 1.75 0 L 0.671875 0 L 0.671875 -6.59375 Z M 1.3125 -6.59375 "/></g></g></g><g fill="#fe7a04" fill-opacity="1"><g transform="translate(197.045728, 207.938835)"><g><path d="M 4.1875 -5.390625 C 4.15625 -5.316406 4.117188 -5.265625 4.078125 -5.234375 C 4.035156 -5.210938 3.984375 -5.203125 3.921875 -5.203125 C 3.859375 -5.203125 3.789062 -5.222656 3.71875 -5.265625 C 3.644531 -5.316406 3.554688 -5.367188 3.453125 -5.421875 C 3.347656 -5.484375 3.222656 -5.535156 3.078125 -5.578125 C 2.941406 -5.628906 2.78125 -5.65625 2.59375 -5.65625 C 2.425781 -5.65625 2.28125 -5.632812 2.15625 -5.59375 C 2.03125 -5.550781 1.921875 -5.492188 1.828125 -5.421875 C 1.742188 -5.347656 1.679688 -5.257812 1.640625 -5.15625 C 1.597656 -5.0625 1.578125 -4.953125 1.578125 -4.828125 C 1.578125 -4.671875 1.617188 -4.539062 1.703125 -4.4375 C 1.785156 -4.34375 1.898438 -4.257812 2.046875 -4.1875 C 2.191406 -4.113281 2.351562 -4.046875 2.53125 -3.984375 C 2.71875 -3.929688 2.90625 -3.867188 3.09375 -3.796875 C 3.28125 -3.734375 3.460938 -3.65625 3.640625 -3.5625 C 3.828125 -3.476562 3.992188 -3.367188 4.140625 -3.234375 C 4.285156 -3.109375 4.398438 -2.945312 4.484375 -2.75 C 4.566406 -2.5625 4.609375 -2.332031 4.609375 -2.0625 C 4.609375 -1.757812 4.554688 -1.476562 4.453125 -1.21875 C 4.359375 -0.96875 4.210938 -0.742188 4.015625 -0.546875 C 3.816406 -0.359375 3.578125 -0.207031 3.296875 -0.09375 C 3.015625 0.0195312 2.691406 0.078125 2.328125 0.078125 C 2.117188 0.078125 1.910156 0.0546875 1.703125 0.015625 C 1.503906 -0.0234375 1.3125 -0.0820312 1.125 -0.15625 C 0.9375 -0.238281 0.757812 -0.332031 0.59375 -0.4375 C 0.4375 -0.539062 0.289062 -0.660156 0.15625 -0.796875 L 0.515625 -1.375 C 0.546875 -1.414062 0.582031 -1.453125 0.625 -1.484375 C 0.675781 -1.515625 0.734375 -1.53125 0.796875 -1.53125 C 0.867188 -1.53125 0.945312 -1.5 1.03125 -1.4375 C 1.125 -1.375 1.226562 -1.300781 1.34375 -1.21875 C 1.46875 -1.144531 1.609375 -1.078125 1.765625 -1.015625 C 1.929688 -0.953125 2.128906 -0.921875 2.359375 -0.921875 C 2.710938 -0.921875 2.984375 -1.003906 3.171875 -1.171875 C 3.367188 -1.335938 3.46875 -1.578125 3.46875 -1.890625 C 3.46875 -2.066406 3.421875 -2.207031 3.328125 -2.3125 C 3.242188 -2.425781 3.128906 -2.519531 2.984375 -2.59375 C 2.847656 -2.664062 2.6875 -2.726562 2.5 -2.78125 C 2.320312 -2.832031 2.132812 -2.882812 1.9375 -2.9375 C 1.75 -3 1.5625 -3.070312 1.375 -3.15625 C 1.195312 -3.25 1.035156 -3.363281 0.890625 -3.5 C 0.753906 -3.632812 0.640625 -3.800781 0.546875 -4 C 0.460938 -4.207031 0.421875 -4.460938 0.421875 -4.765625 C 0.421875 -5.003906 0.46875 -5.238281 0.5625 -5.46875 C 0.664062 -5.695312 0.804688 -5.898438 0.984375 -6.078125 C 1.171875 -6.253906 1.394531 -6.394531 1.65625 -6.5 C 1.925781 -6.601562 2.234375 -6.65625 2.578125 -6.65625 C 2.972656 -6.65625 3.332031 -6.59375 3.65625 -6.46875 C 3.988281 -6.351562 4.269531 -6.1875 4.5 -5.96875 Z M 4.1875 -5.390625 "/></g></g></g><g fill="#fe7a04" fill-opacity="1"><g transform="translate(203.201898, 207.938835)"><g><path d="M 3.3125 -0.984375 C 3.550781 -0.984375 3.765625 -1.019531 3.953125 -1.09375 C 4.140625 -1.175781 4.296875 -1.289062 4.421875 -1.4375 C 4.554688 -1.582031 4.65625 -1.753906 4.71875 -1.953125 C 4.789062 -2.160156 4.828125 -2.390625 4.828125 -2.640625 L 4.828125 -6.59375 L 6.046875 -6.59375 L 6.046875 -2.640625 C 6.046875 -2.242188 5.984375 -1.878906 5.859375 -1.546875 C 5.734375 -1.222656 5.550781 -0.9375 5.3125 -0.6875 C 5.070312 -0.445312 4.785156 -0.257812 4.453125 -0.125 C 4.117188 0.0078125 3.738281 0.078125 3.3125 0.078125 C 2.894531 0.078125 2.515625 0.0078125 2.171875 -0.125 C 1.835938 -0.257812 1.550781 -0.445312 1.3125 -0.6875 C 1.082031 -0.9375 0.90625 -1.222656 0.78125 -1.546875 C 0.65625 -1.878906 0.59375 -2.242188 0.59375 -2.640625 L 0.59375 -6.59375 L 1.8125 -6.59375 L 1.8125 -2.640625 C 1.8125 -2.390625 1.84375 -2.160156 1.90625 -1.953125 C 1.976562 -1.753906 2.078125 -1.582031 2.203125 -1.4375 C 2.335938 -1.289062 2.492188 -1.175781 2.671875 -1.09375 C 2.859375 -1.019531 3.070312 -0.984375 3.3125 -0.984375 Z M 3.3125 -0.984375 "/></g></g></g><g fill="#fe7a04" fill-opacity="1"><g transform="translate(211.100519, 207.938835)"><g><path d="M 1.890625 -1.015625 L 4.53125 -1.015625 L 4.53125 0 L 0.671875 0 L 0.671875 -6.59375 L 1.890625 -6.59375 Z M 1.890625 -1.015625 "/></g></g></g><g fill="#fe7a04" fill-opacity="1"><g transform="translate(217.079268, 207.938835)"><g><path d="M 5.3125 -6.59375 L 5.3125 -5.578125 L 3.328125 -5.578125 L 3.328125 0 L 2.09375 0 L 2.09375 -5.578125 L 0.109375 -5.578125 L 0.109375 -6.59375 Z M 5.3125 -6.59375 "/></g></g></g><g fill="#fe7a04" fill-opacity="1"><g transform="translate(223.767735, 207.938835)"><g><path d="M 2.046875 0 L 0.8125 0 L 0.8125 -6.59375 L 2.046875 -6.59375 Z M 2.046875 0 "/></g></g></g><g fill="#fe7a04" fill-opacity="1"><g transform="translate(227.899393, 207.938835)"><g><path d="M 1.3125 -6.59375 C 1.363281 -6.59375 1.40625 -6.585938 1.4375 -6.578125 C 1.476562 -6.578125 1.507812 -6.566406 1.53125 -6.546875 C 1.5625 -6.535156 1.59375 -6.515625 1.625 -6.484375 C 1.65625 -6.460938 1.6875 -6.429688 1.71875 -6.390625 L 5.171875 -1.984375 C 5.160156 -2.085938 5.148438 -2.191406 5.140625 -2.296875 C 5.140625 -2.398438 5.140625 -2.492188 5.140625 -2.578125 L 5.140625 -6.59375 L 6.21875 -6.59375 L 6.21875 0 L 5.59375 0 C 5.488281 0 5.40625 -0.015625 5.34375 -0.046875 C 5.28125 -0.078125 5.21875 -0.128906 5.15625 -0.203125 L 1.71875 -4.59375 C 1.726562 -4.5 1.734375 -4.398438 1.734375 -4.296875 C 1.742188 -4.203125 1.75 -4.117188 1.75 -4.046875 L 1.75 0 L 0.671875 0 L 0.671875 -6.59375 Z M 1.3125 -6.59375 "/></g></g></g><g fill="#fe7a04" fill-opacity="1"><g transform="translate(236.052784, 207.938835)"><g><path d="M 3.6875 -0.90625 C 3.96875 -0.90625 4.207031 -0.925781 4.40625 -0.96875 C 4.613281 -1.019531 4.8125 -1.09375 5 -1.1875 L 5 -2.375 L 4.171875 -2.375 C 4.085938 -2.375 4.023438 -2.394531 3.984375 -2.4375 C 3.941406 -2.488281 3.921875 -2.546875 3.921875 -2.609375 L 3.921875 -3.296875 L 6.109375 -3.296875 L 6.109375 -0.640625 C 5.941406 -0.515625 5.765625 -0.40625 5.578125 -0.3125 C 5.398438 -0.226562 5.207031 -0.15625 5 -0.09375 C 4.800781 -0.0390625 4.582031 0 4.34375 0.03125 C 4.113281 0.0625 3.863281 0.078125 3.59375 0.078125 C 3.113281 0.078125 2.671875 -0.00390625 2.265625 -0.171875 C 1.859375 -0.335938 1.507812 -0.570312 1.21875 -0.875 C 0.925781 -1.175781 0.695312 -1.53125 0.53125 -1.9375 C 0.363281 -2.351562 0.28125 -2.804688 0.28125 -3.296875 C 0.28125 -3.785156 0.359375 -4.238281 0.515625 -4.65625 C 0.679688 -5.070312 0.910156 -5.425781 1.203125 -5.71875 C 1.503906 -6.019531 1.863281 -6.25 2.28125 -6.40625 C 2.707031 -6.570312 3.179688 -6.65625 3.703125 -6.65625 C 4.242188 -6.65625 4.707031 -6.578125 5.09375 -6.421875 C 5.488281 -6.265625 5.828125 -6.054688 6.109375 -5.796875 L 5.75 -5.25 C 5.675781 -5.132812 5.582031 -5.078125 5.46875 -5.078125 C 5.394531 -5.078125 5.320312 -5.097656 5.25 -5.140625 C 5.144531 -5.203125 5.039062 -5.257812 4.9375 -5.3125 C 4.84375 -5.375 4.734375 -5.425781 4.609375 -5.46875 C 4.484375 -5.507812 4.34375 -5.539062 4.1875 -5.5625 C 4.039062 -5.59375 3.867188 -5.609375 3.671875 -5.609375 C 3.335938 -5.609375 3.039062 -5.550781 2.78125 -5.4375 C 2.519531 -5.332031 2.296875 -5.175781 2.109375 -4.96875 C 1.921875 -4.769531 1.773438 -4.53125 1.671875 -4.25 C 1.578125 -3.96875 1.53125 -3.648438 1.53125 -3.296875 C 1.53125 -2.910156 1.582031 -2.566406 1.6875 -2.265625 C 1.800781 -1.972656 1.953125 -1.722656 2.140625 -1.515625 C 2.328125 -1.316406 2.550781 -1.164062 2.8125 -1.0625 C 3.082031 -0.957031 3.375 -0.90625 3.6875 -0.90625 Z M 3.6875 -0.90625 "/></g></g></g><g fill="#fe7a04" fill-opacity="1"><g transform="translate(243.905916, 207.938835)"><g/></g></g><g fill="#fe7a04" fill-opacity="1"><g transform="translate(246.936607, 207.938835)"><g><path d="M 5.1875 -1.546875 C 5.257812 -1.546875 5.316406 -1.519531 5.359375 -1.46875 L 5.84375 -0.953125 C 5.582031 -0.617188 5.253906 -0.363281 4.859375 -0.1875 C 4.472656 -0.0078125 4.003906 0.078125 3.453125 0.078125 C 2.960938 0.078125 2.519531 -0.00390625 2.125 -0.171875 C 1.738281 -0.335938 1.40625 -0.570312 1.125 -0.875 C 0.851562 -1.175781 0.644531 -1.53125 0.5 -1.9375 C 0.351562 -2.351562 0.28125 -2.804688 0.28125 -3.296875 C 0.28125 -3.785156 0.363281 -4.234375 0.53125 -4.640625 C 0.695312 -5.054688 0.925781 -5.410156 1.21875 -5.703125 C 1.519531 -6.003906 1.875 -6.238281 2.28125 -6.40625 C 2.695312 -6.570312 3.15625 -6.65625 3.65625 -6.65625 C 4.144531 -6.65625 4.570312 -6.578125 4.9375 -6.421875 C 5.3125 -6.265625 5.628906 -6.054688 5.890625 -5.796875 L 5.46875 -5.234375 C 5.445312 -5.191406 5.414062 -5.15625 5.375 -5.125 C 5.34375 -5.101562 5.289062 -5.09375 5.21875 -5.09375 C 5.15625 -5.09375 5.085938 -5.117188 5.015625 -5.171875 C 4.941406 -5.234375 4.847656 -5.296875 4.734375 -5.359375 C 4.617188 -5.421875 4.472656 -5.476562 4.296875 -5.53125 C 4.128906 -5.582031 3.914062 -5.609375 3.65625 -5.609375 C 3.34375 -5.609375 3.054688 -5.554688 2.796875 -5.453125 C 2.535156 -5.347656 2.3125 -5.191406 2.125 -4.984375 C 1.9375 -4.785156 1.789062 -4.539062 1.6875 -4.25 C 1.582031 -3.96875 1.53125 -3.648438 1.53125 -3.296875 C 1.53125 -2.921875 1.582031 -2.585938 1.6875 -2.296875 C 1.789062 -2.015625 1.929688 -1.773438 2.109375 -1.578125 C 2.296875 -1.378906 2.507812 -1.226562 2.75 -1.125 C 2.988281 -1.019531 3.25 -0.96875 3.53125 -0.96875 C 3.695312 -0.96875 3.847656 -0.972656 3.984375 -0.984375 C 4.117188 -1.003906 4.242188 -1.035156 4.359375 -1.078125 C 4.472656 -1.117188 4.582031 -1.171875 4.6875 -1.234375 C 4.789062 -1.296875 4.890625 -1.375 4.984375 -1.46875 C 5.015625 -1.488281 5.046875 -1.503906 5.078125 -1.515625 C 5.117188 -1.535156 5.15625 -1.546875 5.1875 -1.546875 Z M 5.1875 -1.546875 "/></g></g></g><g fill="#fe7a04" fill-opacity="1"><g transform="translate(254.312047, 207.938835)"><g><path d="M 6.984375 -3.296875 C 6.984375 -2.804688 6.898438 -2.351562 6.734375 -1.9375 C 6.578125 -1.53125 6.351562 -1.175781 6.0625 -0.875 C 5.769531 -0.582031 5.414062 -0.347656 5 -0.171875 C 4.59375 -0.00390625 4.140625 0.078125 3.640625 0.078125 C 3.148438 0.078125 2.695312 -0.00390625 2.28125 -0.171875 C 1.875 -0.347656 1.519531 -0.582031 1.21875 -0.875 C 0.925781 -1.175781 0.703125 -1.53125 0.546875 -1.9375 C 0.390625 -2.351562 0.3125 -2.804688 0.3125 -3.296875 C 0.3125 -3.773438 0.390625 -4.21875 0.546875 -4.625 C 0.703125 -5.039062 0.925781 -5.398438 1.21875 -5.703125 C 1.519531 -6.003906 1.875 -6.238281 2.28125 -6.40625 C 2.695312 -6.570312 3.148438 -6.65625 3.640625 -6.65625 C 4.140625 -6.65625 4.59375 -6.570312 5 -6.40625 C 5.414062 -6.238281 5.769531 -6.003906 6.0625 -5.703125 C 6.351562 -5.398438 6.578125 -5.039062 6.734375 -4.625 C 6.898438 -4.21875 6.984375 -3.773438 6.984375 -3.296875 Z M 5.71875 -3.296875 C 5.71875 -3.648438 5.671875 -3.972656 5.578125 -4.265625 C 5.484375 -4.554688 5.347656 -4.800781 5.171875 -5 C 4.992188 -5.195312 4.773438 -5.347656 4.515625 -5.453125 C 4.253906 -5.554688 3.960938 -5.609375 3.640625 -5.609375 C 3.328125 -5.609375 3.039062 -5.554688 2.78125 -5.453125 C 2.519531 -5.347656 2.296875 -5.195312 2.109375 -5 C 1.929688 -4.800781 1.796875 -4.554688 1.703125 -4.265625 C 1.609375 -3.972656 1.5625 -3.648438 1.5625 -3.296875 C 1.5625 -2.929688 1.609375 -2.601562 1.703125 -2.3125 C 1.796875 -2.03125 1.929688 -1.789062 2.109375 -1.59375 C 2.296875 -1.394531 2.519531 -1.238281 2.78125 -1.125 C 3.039062 -1.019531 3.328125 -0.96875 3.640625 -0.96875 C 3.960938 -0.96875 4.253906 -1.019531 4.515625 -1.125 C 4.773438 -1.238281 4.992188 -1.394531 5.171875 -1.59375 C 5.347656 -1.789062 5.484375 -2.03125 5.578125 -2.3125 C 5.671875 -2.601562 5.71875 -2.929688 5.71875 -3.296875 Z M 5.71875 -3.296875 "/></g></g></g><g fill="#fe7a04" fill-opacity="1"><g transform="translate(262.861244, 207.938835)"><g><path d="M 3.96875 -2.734375 C 4.019531 -2.640625 4.066406 -2.535156 4.109375 -2.421875 C 4.160156 -2.316406 4.207031 -2.210938 4.25 -2.109375 C 4.289062 -2.222656 4.332031 -2.332031 4.375 -2.4375 C 4.425781 -2.539062 4.472656 -2.640625 4.515625 -2.734375 L 6.46875 -6.390625 C 6.5 -6.429688 6.523438 -6.46875 6.546875 -6.5 C 6.578125 -6.53125 6.609375 -6.550781 6.640625 -6.5625 C 6.671875 -6.570312 6.703125 -6.578125 6.734375 -6.578125 C 6.773438 -6.585938 6.820312 -6.59375 6.875 -6.59375 L 7.8125 -6.59375 L 7.8125 0 L 6.734375 0 L 6.734375 -4.25 C 6.734375 -4.332031 6.734375 -4.421875 6.734375 -4.515625 C 6.734375 -4.609375 6.738281 -4.703125 6.75 -4.796875 L 4.765625 -1.0625 C 4.722656 -0.976562 4.664062 -0.910156 4.59375 -0.859375 C 4.519531 -0.816406 4.429688 -0.796875 4.328125 -0.796875 L 4.15625 -0.796875 C 4.0625 -0.796875 3.976562 -0.816406 3.90625 -0.859375 C 3.832031 -0.910156 3.773438 -0.976562 3.734375 -1.0625 L 1.71875 -4.8125 C 1.726562 -4.71875 1.734375 -4.617188 1.734375 -4.515625 C 1.742188 -4.421875 1.75 -4.332031 1.75 -4.25 L 1.75 0 L 0.671875 0 L 0.671875 -6.59375 L 1.59375 -6.59375 C 1.644531 -6.59375 1.691406 -6.585938 1.734375 -6.578125 C 1.773438 -6.578125 1.8125 -6.570312 1.84375 -6.5625 C 1.875 -6.550781 1.898438 -6.53125 1.921875 -6.5 C 1.953125 -6.46875 1.976562 -6.429688 2 -6.390625 Z M 3.96875 -2.734375 "/></g></g></g><g fill="#fe7a04" fill-opacity="1"><g transform="translate(272.597852, 207.938835)"><g><path d="M 1.9375 -2.3125 L 1.9375 0 L 0.703125 0 L 0.703125 -6.59375 L 2.84375 -6.59375 C 3.289062 -6.59375 3.675781 -6.539062 4 -6.4375 C 4.320312 -6.332031 4.585938 -6.1875 4.796875 -6 C 5.003906 -5.8125 5.15625 -5.585938 5.25 -5.328125 C 5.351562 -5.078125 5.40625 -4.796875 5.40625 -4.484375 C 5.40625 -4.171875 5.351562 -3.878906 5.25 -3.609375 C 5.144531 -3.347656 4.984375 -3.117188 4.765625 -2.921875 C 4.554688 -2.734375 4.289062 -2.582031 3.96875 -2.46875 C 3.65625 -2.363281 3.28125 -2.3125 2.84375 -2.3125 Z M 1.9375 -3.28125 L 2.84375 -3.28125 C 3.070312 -3.28125 3.269531 -3.304688 3.4375 -3.359375 C 3.601562 -3.410156 3.738281 -3.488281 3.84375 -3.59375 C 3.957031 -3.695312 4.039062 -3.820312 4.09375 -3.96875 C 4.15625 -4.125 4.1875 -4.296875 4.1875 -4.484375 C 4.1875 -4.660156 4.15625 -4.816406 4.09375 -4.953125 C 4.039062 -5.097656 3.957031 -5.222656 3.84375 -5.328125 C 3.738281 -5.429688 3.601562 -5.507812 3.4375 -5.5625 C 3.269531 -5.613281 3.070312 -5.640625 2.84375 -5.640625 L 1.9375 -5.640625 Z M 1.9375 -3.28125 "/></g></g></g><g fill="#fe7a04" fill-opacity="1"><g transform="translate(279.559286, 207.938835)"><g><path d="M 6.453125 0 L 5.5 0 C 5.394531 0 5.304688 -0.0234375 5.234375 -0.078125 C 5.171875 -0.128906 5.125 -0.195312 5.09375 -0.28125 L 4.609375 -1.625 L 1.875 -1.625 L 1.390625 -0.28125 C 1.359375 -0.207031 1.304688 -0.140625 1.234375 -0.078125 C 1.171875 -0.0234375 1.085938 0 0.984375 0 L 0.03125 0 L 2.609375 -6.59375 L 3.859375 -6.59375 Z M 2.1875 -2.484375 L 4.296875 -2.484375 L 3.484375 -4.671875 C 3.453125 -4.773438 3.410156 -4.890625 3.359375 -5.015625 C 3.316406 -5.148438 3.273438 -5.296875 3.234375 -5.453125 C 3.191406 -5.296875 3.148438 -5.148438 3.109375 -5.015625 C 3.066406 -4.878906 3.03125 -4.765625 3 -4.671875 Z M 2.1875 -2.484375 "/></g></g></g><g fill="#fe7a04" fill-opacity="1"><g transform="translate(287.294126, 207.938835)"><g><path d="M 1.3125 -6.59375 C 1.363281 -6.59375 1.40625 -6.585938 1.4375 -6.578125 C 1.476562 -6.578125 1.507812 -6.566406 1.53125 -6.546875 C 1.5625 -6.535156 1.59375 -6.515625 1.625 -6.484375 C 1.65625 -6.460938 1.6875 -6.429688 1.71875 -6.390625 L 5.171875 -1.984375 C 5.160156 -2.085938 5.148438 -2.191406 5.140625 -2.296875 C 5.140625 -2.398438 5.140625 -2.492188 5.140625 -2.578125 L 5.140625 -6.59375 L 6.21875 -6.59375 L 6.21875 0 L 5.59375 0 C 5.488281 0 5.40625 -0.015625 5.34375 -0.046875 C 5.28125 -0.078125 5.21875 -0.128906 5.15625 -0.203125 L 1.71875 -4.59375 C 1.726562 -4.5 1.734375 -4.398438 1.734375 -4.296875 C 1.742188 -4.203125 1.75 -4.117188 1.75 -4.046875 L 1.75 0 L 0.671875 0 L 0.671875 -6.59375 Z M 1.3125 -6.59375 "/></g></g></g><g fill="#fe7a04" fill-opacity="1"><g transform="translate(295.447528, 207.938835)"><g><path d="M 3.59375 -2.5625 L 3.59375 0 L 2.375 0 L 2.375 -2.5625 L -0.03125 -6.59375 L 1.046875 -6.59375 C 1.148438 -6.59375 1.234375 -6.566406 1.296875 -6.515625 C 1.359375 -6.460938 1.410156 -6.394531 1.453125 -6.3125 L 2.671875 -4.109375 C 2.734375 -3.984375 2.789062 -3.859375 2.84375 -3.734375 C 2.894531 -3.617188 2.941406 -3.503906 2.984375 -3.390625 C 3.023438 -3.515625 3.070312 -3.632812 3.125 -3.75 C 3.175781 -3.863281 3.234375 -3.984375 3.296875 -4.109375 L 4.5 -6.3125 C 4.53125 -6.375 4.578125 -6.4375 4.640625 -6.5 C 4.710938 -6.5625 4.800781 -6.59375 4.90625 -6.59375 L 5.984375 -6.59375 Z M 3.59375 -2.5625 "/></g></g></g></svg>