<svg width="1236" height="4585" viewBox="0 0 1236 4585" fill="none" xmlns="http://www.w3.org/2000/svg">
<path d="M570.45 8.97436C570.45 8.97436 710.001 176 765.45 340.974" stroke="white" stroke-width="8"/>
<path d="M806.894 507.92C868.501 747.5 786 851.5 735.999 877.5" stroke="white" stroke-width="8"/>
<path d="M375.865 3103.21C442.5 3453 921 3602.5 1066.86 3812.21" stroke="white" stroke-width="8"/>
<path d="M1159.54 3949.85C1287.5 4121 827.545 4584.85 827.545 4584.85" stroke="white" stroke-width="8"/>
<path d="M433.5 2538C433.5 2538 507.288 2599.44 516 2654.5C522.25 2694.01 524 2708 499 2755.5C474 2803 442.5 2815.5 398 2850.5C353.5 2885.5 353.5 2906 353.5 2906C353.5 2906 347.029 2948.41 353.5 2969.5" stroke="white" stroke-width="8"/>
<path d="M781 975.5C791.5 1088 747.5 1110 692 1194C636.5 1278 621 1305.5 580.5 1390" stroke="white" stroke-width="8"/>
<path d="M504.5 1524.5C413 1713.5 576 2066 576 2066" stroke="white" stroke-width="8"/>
<path d="M550 2124C638.5 2031.5 834 1906.5 899 2073C964 2239.5 670 2318.5 575 2064" stroke="white" stroke-width="8"/>
<path d="M781.5 978.5C743 735.5 312.066 475.076 105.067 619.628C-101.933 764.18 187.482 1328.69 768.777 852.275" stroke="white" stroke-width="8"/>
<path d="M552 2121.5C552 2121.5 326.897 2346.84 376.962 2411.19" stroke="white" stroke-width="8"/>
</svg>
