<svg xmlns="http://www.w3.org/2000/svg" xmlns:xlink="http://www.w3.org/1999/xlink" width="500" zoomAndPan="magnify" viewBox="0 0 375 374.999991" height="500" preserveAspectRatio="xMidYMid meet" version="1.0"><defs><g/><clipPath id="47a7a4e496"><path d="M 46.320312 126.25 L 328.320312 126.25 L 328.320312 156 L 46.320312 156 Z M 46.320312 126.25 " clip-rule="nonzero"/></clipPath><clipPath id="c6202cc0c6"><path d="M 46.320312 220 L 328.320312 220 L 328.320312 248.5 L 46.320312 248.5 Z M 46.320312 220 " clip-rule="nonzero"/></clipPath></defs><rect x="-37.5" width="450" fill="#ffffff" y="-37.499999" height="449.999989" fill-opacity="1"/><rect x="-37.5" width="450" fill="#ffffff" y="-37.499999" height="449.999989" fill-opacity="1"/><g clip-path="url(#47a7a4e496)"><path fill="#ff914d" d="M 49.96875 129.492188 L 325.019531 129.492188 L 325.019531 155.980469 L 328.261719 155.980469 L 328.261719 126.25 L 46.726562 126.25 L 46.726562 155.980469 L 49.96875 155.980469 Z M 49.96875 129.492188 " fill-opacity="1" fill-rule="nonzero"/></g><g clip-path="url(#c6202cc0c6)"><path fill="#ff914d" d="M 325.019531 245.5 L 49.96875 245.5 L 49.96875 220.636719 L 46.726562 220.636719 L 46.726562 248.746094 L 328.261719 248.746094 L 328.261719 220.636719 L 325.019531 220.636719 Z M 325.019531 245.5 " fill-opacity="1" fill-rule="nonzero"/></g><g fill="#392f0e" fill-opacity="1"><g transform="translate(80.267281, 184.136893)"><g><path d="M 19.875 -7.484375 C 19.875 -6.347656 19.648438 -5.296875 19.203125 -4.328125 C 18.753906 -3.367188 18.085938 -2.523438 17.203125 -1.796875 C 15.484375 -0.347656 13.269531 0.375 10.5625 0.375 C 8.457031 0.375 6.550781 -0.0546875 4.84375 -0.921875 C 3.144531 -1.785156 1.894531 -2.941406 1.09375 -4.390625 L 4.4375 -6.125 C 4.9375 -5.21875 5.726562 -4.519531 6.8125 -4.03125 C 7.90625 -3.550781 9.15625 -3.3125 10.5625 -3.3125 C 14.195312 -3.3125 16.015625 -4.703125 16.015625 -7.484375 C 16.015625 -8.003906 15.914062 -8.453125 15.71875 -8.828125 C 15.53125 -9.203125 15.25 -9.554688 14.875 -9.890625 C 13.976562 -10.640625 12.363281 -11.3125 10.03125 -11.90625 C 8.625 -12.257812 7.429688 -12.648438 6.453125 -13.078125 C 5.484375 -13.503906 4.671875 -14.003906 4.015625 -14.578125 C 2.441406 -15.859375 1.65625 -17.550781 1.65625 -19.65625 C 1.65625 -20.707031 1.859375 -21.6875 2.265625 -22.59375 C 2.679688 -23.507812 3.265625 -24.304688 4.015625 -24.984375 C 4.796875 -25.660156 5.707031 -26.164062 6.75 -26.5 C 7.789062 -26.84375 8.9375 -27.015625 10.1875 -27.015625 C 12.007812 -27.015625 13.691406 -26.664062 15.234375 -25.96875 C 16.773438 -25.269531 17.945312 -24.28125 18.75 -23 L 15.703125 -21.125 C 14.984375 -22 14.144531 -22.617188 13.1875 -22.984375 C 12.238281 -23.347656 11.238281 -23.53125 10.1875 -23.53125 C 9.4375 -23.53125 8.742188 -23.398438 8.109375 -23.140625 C 7.484375 -22.890625 6.957031 -22.59375 6.53125 -22.25 C 6.1875 -21.945312 5.929688 -21.578125 5.765625 -21.140625 C 5.609375 -20.703125 5.53125 -20.234375 5.53125 -19.734375 C 5.53125 -19.398438 5.578125 -19.0625 5.671875 -18.71875 C 5.773438 -18.382812 6.015625 -18.035156 6.390625 -17.671875 C 6.765625 -17.316406 7.3125 -16.96875 8.03125 -16.625 C 8.757812 -16.289062 9.753906 -15.957031 11.015625 -15.625 C 12.515625 -15.25 13.773438 -14.84375 14.796875 -14.40625 C 15.828125 -13.96875 16.695312 -13.453125 17.40625 -12.859375 C 19.050781 -11.503906 19.875 -9.710938 19.875 -7.484375 Z M 19.875 -7.484375 "/></g></g></g><g fill="#392f0e" fill-opacity="1"><g transform="translate(110.33471, 184.136893)"><g><path d="M 9.3125 -23.40625 L 9.3125 -3.234375 L 11.265625 -3.234375 L 11.265625 0 L 3.421875 0 L 3.421875 -3.234375 L 5.40625 -3.234375 L 5.40625 -23.40625 L 3.421875 -23.40625 L 3.421875 -26.640625 L 11.265625 -26.640625 L 11.265625 -23.40625 Z M 9.3125 -23.40625 "/></g></g></g><g fill="#392f0e" fill-opacity="1"><g transform="translate(133.373997, 184.136893)"><g><path d="M 25.0625 -26.640625 L 25.0625 0 L 21.078125 0 L 6.203125 -20.4375 L 6.203125 0 L 2.109375 0 L 2.109375 -26.640625 L 6.234375 -26.640625 L 21.125 -6.09375 L 21.125 -26.640625 Z M 25.0625 -26.640625 "/></g></g></g><g fill="#392f0e" fill-opacity="1"><g transform="translate(168.891036, 184.136893)"><g><path d="M 2.25 0 L 2.25 -26.640625 L 11.71875 -26.640625 C 13.65625 -26.640625 15.359375 -26.285156 16.828125 -25.578125 C 18.304688 -24.878906 19.539062 -23.929688 20.53125 -22.734375 C 21.519531 -21.535156 22.269531 -20.117188 22.78125 -18.484375 C 23.300781 -16.859375 23.5625 -15.128906 23.5625 -13.296875 C 23.5625 -11.441406 23.289062 -9.707031 22.75 -8.09375 C 22.21875 -6.476562 21.472656 -5.066406 20.515625 -3.859375 C 19.566406 -2.660156 18.441406 -1.71875 17.140625 -1.03125 C 15.835938 -0.34375 14.429688 0 12.921875 0 Z M 11.578125 -3.640625 C 13.003906 -3.640625 14.21875 -3.898438 15.21875 -4.421875 C 16.21875 -4.953125 17.039062 -5.65625 17.6875 -6.53125 C 18.34375 -7.414062 18.820312 -8.445312 19.125 -9.625 C 19.425781 -10.800781 19.578125 -12.023438 19.578125 -13.296875 C 19.578125 -14.578125 19.425781 -15.8125 19.125 -17 C 18.820312 -18.1875 18.351562 -19.234375 17.71875 -20.140625 C 17.082031 -21.046875 16.253906 -21.765625 15.234375 -22.296875 C 14.222656 -22.835938 13.003906 -23.109375 11.578125 -23.109375 L 6.203125 -23.109375 L 6.203125 -3.640625 Z M 11.578125 -3.640625 "/></g></g></g><g fill="#392f0e" fill-opacity="1"><g transform="translate(202.641648, 184.136893)"><g><path d="M 20.96875 -7.4375 C 20.96875 -6.414062 20.769531 -5.453125 20.375 -4.546875 C 19.988281 -3.640625 19.457031 -2.847656 18.78125 -2.171875 C 18.113281 -1.503906 17.320312 -0.972656 16.40625 -0.578125 C 15.488281 -0.191406 14.515625 0 13.484375 0 L 2.109375 0 L 2.109375 -26.640625 L 12.515625 -26.640625 C 13.410156 -26.640625 14.257812 -26.460938 15.0625 -26.109375 C 15.863281 -25.765625 16.566406 -25.289062 17.171875 -24.6875 C 17.773438 -24.082031 18.25 -23.375 18.59375 -22.5625 C 18.945312 -21.75 19.125 -20.878906 19.125 -19.953125 C 19.125 -18.796875 18.9375 -17.75 18.5625 -16.8125 C 18.1875 -15.875 17.570312 -15.082031 16.71875 -14.4375 C 18.144531 -13.90625 19.207031 -13.003906 19.90625 -11.734375 C 20.613281 -10.472656 20.96875 -9.039062 20.96875 -7.4375 Z M 6.015625 -15.859375 C 7.015625 -15.835938 7.941406 -15.828125 8.796875 -15.828125 L 12.546875 -15.828125 C 13.503906 -15.828125 14.304688 -16.179688 14.953125 -16.890625 C 15.609375 -17.609375 15.9375 -18.46875 15.9375 -19.46875 C 15.9375 -20.488281 15.609375 -21.347656 14.953125 -22.046875 C 14.304688 -22.753906 13.503906 -23.109375 12.546875 -23.109375 L 6.015625 -23.109375 Z M 6.015625 -3.640625 C 6.191406 -3.617188 6.578125 -3.609375 7.171875 -3.609375 L 13.484375 -3.609375 C 14.015625 -3.609375 14.507812 -3.71875 14.96875 -3.9375 C 15.4375 -4.164062 15.84375 -4.472656 16.1875 -4.859375 C 16.539062 -5.253906 16.816406 -5.710938 17.015625 -6.234375 C 17.222656 -6.765625 17.328125 -7.328125 17.328125 -7.921875 C 17.328125 -8.523438 17.222656 -9.082031 17.015625 -9.59375 C 16.816406 -10.113281 16.539062 -10.566406 16.1875 -10.953125 C 15.84375 -11.335938 15.4375 -11.644531 14.96875 -11.875 C 14.507812 -12.101562 14.015625 -12.21875 13.484375 -12.21875 L 6.015625 -12.21875 Z M 6.015625 -3.640625 "/></g></g></g><g fill="#392f0e" fill-opacity="1"><g transform="translate(233.460742, 184.136893)"><g><path d="M 4.703125 0 L 0.40625 0 L 11.5 -26.640625 L 15.828125 -26.640625 L 26.90625 0 L 22.65625 0 L 19.171875 -8.34375 L 8.15625 -8.34375 Z M 9.65625 -11.953125 L 17.65625 -11.953125 L 13.671875 -21.5625 Z M 9.65625 -11.953125 "/></g></g></g><g fill="#392f0e" fill-opacity="1"><g transform="translate(269.24088, 184.136893)"><g><path d="M 2.25 0 L 2.25 -26.640625 L 11.71875 -26.640625 C 13.65625 -26.640625 15.359375 -26.285156 16.828125 -25.578125 C 18.304688 -24.878906 19.539062 -23.929688 20.53125 -22.734375 C 21.519531 -21.535156 22.269531 -20.117188 22.78125 -18.484375 C 23.300781 -16.859375 23.5625 -15.128906 23.5625 -13.296875 C 23.5625 -11.441406 23.289062 -9.707031 22.75 -8.09375 C 22.21875 -6.476562 21.472656 -5.066406 20.515625 -3.859375 C 19.566406 -2.660156 18.441406 -1.71875 17.140625 -1.03125 C 15.835938 -0.34375 14.429688 0 12.921875 0 Z M 11.578125 -3.640625 C 13.003906 -3.640625 14.21875 -3.898438 15.21875 -4.421875 C 16.21875 -4.953125 17.039062 -5.65625 17.6875 -6.53125 C 18.34375 -7.414062 18.820312 -8.445312 19.125 -9.625 C 19.425781 -10.800781 19.578125 -12.023438 19.578125 -13.296875 C 19.578125 -14.578125 19.425781 -15.8125 19.125 -17 C 18.820312 -18.1875 18.351562 -19.234375 17.71875 -20.140625 C 17.082031 -21.046875 16.253906 -21.765625 15.234375 -22.296875 C 14.222656 -22.835938 13.003906 -23.109375 11.578125 -23.109375 L 6.203125 -23.109375 L 6.203125 -3.640625 Z M 11.578125 -3.640625 "/></g></g></g><g fill="#342e17" fill-opacity="1"><g transform="translate(38.548622, 207.358401)"><g><path d="M 6.9375 -8.609375 L 6.9375 -7.296875 L 4.34375 -7.296875 L 4.34375 0 L 2.75 0 L 2.75 -7.296875 L 0.140625 -7.296875 L 0.140625 -8.609375 Z M 6.9375 -8.609375 "/></g></g></g><g fill="#342e17" fill-opacity="1"><g transform="translate(47.293345, 207.358401)"><g><path d="M 8.125 0 L 6.515625 0 L 6.515625 -3.765625 L 2.484375 -3.765625 L 2.484375 0 L 0.875 0 L 0.875 -8.609375 L 2.484375 -8.609375 L 2.484375 -4.90625 L 6.515625 -4.90625 L 6.515625 -8.609375 L 8.125 -8.609375 Z M 8.125 0 "/></g></g></g><g fill="#342e17" fill-opacity="1"><g transform="translate(57.953357, 207.358401)"><g><path d="M 6.296875 -8.609375 L 6.296875 -7.328125 L 2.484375 -7.328125 L 2.484375 -4.953125 L 5.484375 -4.953125 L 5.484375 -3.71875 L 2.484375 -3.71875 L 2.484375 -1.28125 L 6.296875 -1.28125 L 6.296875 0 L 0.875 0 L 0.875 -8.609375 Z M 6.296875 -8.609375 "/></g></g></g><g fill="#342e17" fill-opacity="1"><g transform="translate(66.430403, 207.358401)"><g/></g></g><g fill="#342e17" fill-opacity="1"><g transform="translate(70.392834, 207.358401)"><g><path d="M 2.53125 -3.359375 L 2.53125 0 L 0.921875 0 L 0.921875 -8.609375 L 3.546875 -8.609375 C 4.128906 -8.609375 4.628906 -8.546875 5.046875 -8.421875 C 5.472656 -8.304688 5.816406 -8.140625 6.078125 -7.921875 C 6.347656 -7.703125 6.546875 -7.4375 6.671875 -7.125 C 6.796875 -6.820312 6.859375 -6.488281 6.859375 -6.125 C 6.859375 -5.84375 6.816406 -5.570312 6.734375 -5.3125 C 6.648438 -5.050781 6.523438 -4.816406 6.359375 -4.609375 C 6.203125 -4.398438 6.003906 -4.210938 5.765625 -4.046875 C 5.535156 -3.890625 5.269531 -3.765625 4.96875 -3.671875 C 5.164062 -3.554688 5.335938 -3.390625 5.484375 -3.171875 L 7.640625 0 L 6.203125 0 C 6.066406 0 5.945312 -0.0234375 5.84375 -0.078125 C 5.75 -0.140625 5.671875 -0.222656 5.609375 -0.328125 L 3.796875 -3.078125 C 3.722656 -3.179688 3.644531 -3.253906 3.5625 -3.296875 C 3.488281 -3.335938 3.367188 -3.359375 3.203125 -3.359375 Z M 2.53125 -4.515625 L 3.53125 -4.515625 C 3.832031 -4.515625 4.09375 -4.550781 4.3125 -4.625 C 4.539062 -4.695312 4.722656 -4.800781 4.859375 -4.9375 C 5.003906 -5.070312 5.113281 -5.226562 5.1875 -5.40625 C 5.257812 -5.59375 5.296875 -5.796875 5.296875 -6.015625 C 5.296875 -6.453125 5.148438 -6.785156 4.859375 -7.015625 C 4.578125 -7.253906 4.140625 -7.375 3.546875 -7.375 L 2.53125 -7.375 Z M 2.53125 -4.515625 "/></g></g></g><g fill="#342e17" fill-opacity="1"><g transform="translate(79.851333, 207.358401)"><g><path d="M 6.296875 -8.609375 L 6.296875 -7.328125 L 2.484375 -7.328125 L 2.484375 -4.953125 L 5.484375 -4.953125 L 5.484375 -3.71875 L 2.484375 -3.71875 L 2.484375 -1.28125 L 6.296875 -1.28125 L 6.296875 0 L 0.875 0 L 0.875 -8.609375 Z M 6.296875 -8.609375 "/></g></g></g><g fill="#342e17" fill-opacity="1"><g transform="translate(88.328381, 207.358401)"><g><path d="M 5.484375 -7.046875 C 5.441406 -6.953125 5.390625 -6.882812 5.328125 -6.84375 C 5.273438 -6.8125 5.207031 -6.796875 5.125 -6.796875 C 5.039062 -6.796875 4.945312 -6.828125 4.84375 -6.890625 C 4.75 -6.953125 4.632812 -7.019531 4.5 -7.09375 C 4.363281 -7.175781 4.207031 -7.25 4.03125 -7.3125 C 3.851562 -7.375 3.640625 -7.40625 3.390625 -7.40625 C 3.171875 -7.40625 2.976562 -7.375 2.8125 -7.3125 C 2.644531 -7.257812 2.503906 -7.1875 2.390625 -7.09375 C 2.273438 -7 2.191406 -6.882812 2.140625 -6.75 C 2.085938 -6.613281 2.0625 -6.46875 2.0625 -6.3125 C 2.0625 -6.113281 2.117188 -5.945312 2.234375 -5.8125 C 2.347656 -5.675781 2.492188 -5.5625 2.671875 -5.46875 C 2.859375 -5.375 3.070312 -5.285156 3.3125 -5.203125 C 3.550781 -5.128906 3.796875 -5.050781 4.046875 -4.96875 C 4.296875 -4.882812 4.535156 -4.785156 4.765625 -4.671875 C 5.003906 -4.554688 5.21875 -4.410156 5.40625 -4.234375 C 5.59375 -4.066406 5.742188 -3.859375 5.859375 -3.609375 C 5.972656 -3.359375 6.03125 -3.054688 6.03125 -2.703125 C 6.03125 -2.304688 5.960938 -1.9375 5.828125 -1.59375 C 5.691406 -1.257812 5.492188 -0.96875 5.234375 -0.71875 C 4.984375 -0.46875 4.671875 -0.269531 4.296875 -0.125 C 3.929688 0.0195312 3.515625 0.09375 3.046875 0.09375 C 2.765625 0.09375 2.488281 0.0664062 2.21875 0.015625 C 1.957031 -0.0351562 1.703125 -0.109375 1.453125 -0.203125 C 1.210938 -0.304688 0.988281 -0.425781 0.78125 -0.5625 C 0.570312 -0.707031 0.382812 -0.863281 0.21875 -1.03125 L 0.671875 -1.796875 C 0.722656 -1.859375 0.773438 -1.90625 0.828125 -1.9375 C 0.890625 -1.976562 0.960938 -2 1.046875 -2 C 1.140625 -2 1.242188 -1.957031 1.359375 -1.875 C 1.472656 -1.789062 1.609375 -1.695312 1.765625 -1.59375 C 1.921875 -1.5 2.101562 -1.410156 2.3125 -1.328125 C 2.53125 -1.253906 2.789062 -1.21875 3.09375 -1.21875 C 3.550781 -1.21875 3.90625 -1.320312 4.15625 -1.53125 C 4.40625 -1.75 4.53125 -2.0625 4.53125 -2.46875 C 4.53125 -2.695312 4.472656 -2.878906 4.359375 -3.015625 C 4.242188 -3.160156 4.09375 -3.28125 3.90625 -3.375 C 3.71875 -3.476562 3.503906 -3.5625 3.265625 -3.625 C 3.023438 -3.695312 2.78125 -3.769531 2.53125 -3.84375 C 2.289062 -3.925781 2.050781 -4.019531 1.8125 -4.125 C 1.570312 -4.238281 1.359375 -4.382812 1.171875 -4.5625 C 0.992188 -4.75 0.847656 -4.972656 0.734375 -5.234375 C 0.617188 -5.503906 0.5625 -5.835938 0.5625 -6.234375 C 0.5625 -6.546875 0.625 -6.847656 0.75 -7.140625 C 0.875 -7.441406 1.054688 -7.707031 1.296875 -7.9375 C 1.535156 -8.164062 1.828125 -8.347656 2.171875 -8.484375 C 2.523438 -8.628906 2.925781 -8.703125 3.375 -8.703125 C 3.882812 -8.703125 4.351562 -8.625 4.78125 -8.46875 C 5.207031 -8.3125 5.570312 -8.085938 5.875 -7.796875 Z M 5.484375 -7.046875 "/></g></g></g><g fill="#342e17" fill-opacity="1"><g transform="translate(96.37716, 207.358401)"><g><path d="M 6.9375 -8.609375 L 6.9375 -7.296875 L 4.34375 -7.296875 L 4.34375 0 L 2.75 0 L 2.75 -7.296875 L 0.140625 -7.296875 L 0.140625 -8.609375 Z M 6.9375 -8.609375 "/></g></g></g><g fill="#342e17" fill-opacity="1"><g transform="translate(105.121884, 207.358401)"><g><path d="M 8.4375 0 L 7.203125 0 C 7.054688 0 6.9375 -0.03125 6.84375 -0.09375 C 6.757812 -0.164062 6.695312 -0.253906 6.65625 -0.359375 L 6.015625 -2.125 L 2.453125 -2.125 L 1.8125 -0.359375 C 1.78125 -0.265625 1.71875 -0.179688 1.625 -0.109375 C 1.53125 -0.0351562 1.414062 0 1.28125 0 L 0.03125 0 L 3.421875 -8.609375 L 5.046875 -8.609375 Z M 2.859375 -3.25 L 5.609375 -3.25 L 4.5625 -6.109375 C 4.507812 -6.234375 4.453125 -6.382812 4.390625 -6.5625 C 4.335938 -6.738281 4.285156 -6.925781 4.234375 -7.125 C 4.179688 -6.925781 4.125 -6.738281 4.0625 -6.5625 C 4.007812 -6.382812 3.957031 -6.234375 3.90625 -6.109375 Z M 2.859375 -3.25 "/></g></g></g><g fill="#342e17" fill-opacity="1"><g transform="translate(115.23467, 207.358401)"><g><path d="M 4.328125 -1.296875 C 4.640625 -1.296875 4.914062 -1.34375 5.15625 -1.4375 C 5.40625 -1.539062 5.613281 -1.6875 5.78125 -1.875 C 5.945312 -2.0625 6.070312 -2.285156 6.15625 -2.546875 C 6.25 -2.816406 6.296875 -3.117188 6.296875 -3.453125 L 6.296875 -8.609375 L 7.90625 -8.609375 L 7.90625 -3.453125 C 7.90625 -2.941406 7.820312 -2.46875 7.65625 -2.03125 C 7.488281 -1.59375 7.25 -1.21875 6.9375 -0.90625 C 6.632812 -0.59375 6.257812 -0.347656 5.8125 -0.171875 C 5.375 0.00390625 4.878906 0.09375 4.328125 0.09375 C 3.773438 0.09375 3.28125 0.00390625 2.84375 -0.171875 C 2.40625 -0.347656 2.03125 -0.59375 1.71875 -0.90625 C 1.414062 -1.21875 1.179688 -1.59375 1.015625 -2.03125 C 0.847656 -2.46875 0.765625 -2.941406 0.765625 -3.453125 L 0.765625 -8.609375 L 2.375 -8.609375 L 2.375 -3.453125 C 2.375 -3.128906 2.414062 -2.832031 2.5 -2.5625 C 2.59375 -2.300781 2.722656 -2.070312 2.890625 -1.875 C 3.054688 -1.6875 3.257812 -1.539062 3.5 -1.4375 C 3.75 -1.34375 4.023438 -1.296875 4.328125 -1.296875 Z M 4.328125 -1.296875 "/></g></g></g><g fill="#342e17" fill-opacity="1"><g transform="translate(125.561588, 207.358401)"><g><path d="M 2.53125 -3.359375 L 2.53125 0 L 0.921875 0 L 0.921875 -8.609375 L 3.546875 -8.609375 C 4.128906 -8.609375 4.628906 -8.546875 5.046875 -8.421875 C 5.472656 -8.304688 5.816406 -8.140625 6.078125 -7.921875 C 6.347656 -7.703125 6.546875 -7.4375 6.671875 -7.125 C 6.796875 -6.820312 6.859375 -6.488281 6.859375 -6.125 C 6.859375 -5.84375 6.816406 -5.570312 6.734375 -5.3125 C 6.648438 -5.050781 6.523438 -4.816406 6.359375 -4.609375 C 6.203125 -4.398438 6.003906 -4.210938 5.765625 -4.046875 C 5.535156 -3.890625 5.269531 -3.765625 4.96875 -3.671875 C 5.164062 -3.554688 5.335938 -3.390625 5.484375 -3.171875 L 7.640625 0 L 6.203125 0 C 6.066406 0 5.945312 -0.0234375 5.84375 -0.078125 C 5.75 -0.140625 5.671875 -0.222656 5.609375 -0.328125 L 3.796875 -3.078125 C 3.722656 -3.179688 3.644531 -3.253906 3.5625 -3.296875 C 3.488281 -3.335938 3.367188 -3.359375 3.203125 -3.359375 Z M 2.53125 -4.515625 L 3.53125 -4.515625 C 3.832031 -4.515625 4.09375 -4.550781 4.3125 -4.625 C 4.539062 -4.695312 4.722656 -4.800781 4.859375 -4.9375 C 5.003906 -5.070312 5.113281 -5.226562 5.1875 -5.40625 C 5.257812 -5.59375 5.296875 -5.796875 5.296875 -6.015625 C 5.296875 -6.453125 5.148438 -6.785156 4.859375 -7.015625 C 4.578125 -7.253906 4.140625 -7.375 3.546875 -7.375 L 2.53125 -7.375 Z M 2.53125 -4.515625 "/></g></g></g><g fill="#342e17" fill-opacity="1"><g transform="translate(135.020087, 207.358401)"><g><path d="M 8.4375 0 L 7.203125 0 C 7.054688 0 6.9375 -0.03125 6.84375 -0.09375 C 6.757812 -0.164062 6.695312 -0.253906 6.65625 -0.359375 L 6.015625 -2.125 L 2.453125 -2.125 L 1.8125 -0.359375 C 1.78125 -0.265625 1.71875 -0.179688 1.625 -0.109375 C 1.53125 -0.0351562 1.414062 0 1.28125 0 L 0.03125 0 L 3.421875 -8.609375 L 5.046875 -8.609375 Z M 2.859375 -3.25 L 5.609375 -3.25 L 4.5625 -6.109375 C 4.507812 -6.234375 4.453125 -6.382812 4.390625 -6.5625 C 4.335938 -6.738281 4.285156 -6.925781 4.234375 -7.125 C 4.179688 -6.925781 4.125 -6.738281 4.0625 -6.5625 C 4.007812 -6.382812 3.957031 -6.234375 3.90625 -6.109375 Z M 2.859375 -3.25 "/></g></g></g><g fill="#342e17" fill-opacity="1"><g transform="translate(145.132873, 207.358401)"><g><path d="M 1.703125 -8.609375 C 1.773438 -8.609375 1.832031 -8.601562 1.875 -8.59375 C 1.925781 -8.59375 1.972656 -8.582031 2.015625 -8.5625 C 2.054688 -8.539062 2.09375 -8.515625 2.125 -8.484375 C 2.15625 -8.453125 2.195312 -8.410156 2.25 -8.359375 L 6.765625 -2.59375 C 6.742188 -2.726562 6.726562 -2.863281 6.71875 -3 C 6.71875 -3.132812 6.71875 -3.257812 6.71875 -3.375 L 6.71875 -8.609375 L 8.125 -8.609375 L 8.125 0 L 7.296875 0 C 7.171875 0 7.066406 -0.0195312 6.984375 -0.0625 C 6.898438 -0.101562 6.820312 -0.175781 6.75 -0.28125 L 2.25 -6 C 2.257812 -5.875 2.265625 -5.75 2.265625 -5.625 C 2.273438 -5.5 2.28125 -5.382812 2.28125 -5.28125 L 2.28125 0 L 0.875 0 L 0.875 -8.609375 Z M 1.703125 -8.609375 "/></g></g></g><g fill="#342e17" fill-opacity="1"><g transform="translate(155.792886, 207.358401)"><g><path d="M 6.9375 -8.609375 L 6.9375 -7.296875 L 4.34375 -7.296875 L 4.34375 0 L 2.75 0 L 2.75 -7.296875 L 0.140625 -7.296875 L 0.140625 -8.609375 Z M 6.9375 -8.609375 "/></g></g></g><g fill="#342e17" fill-opacity="1"><g transform="translate(164.537603, 207.358401)"><g/></g></g><g fill="#342e17" fill-opacity="1"><g transform="translate(168.500027, 207.358401)"><g><path d="M 6.78125 -2.03125 C 6.875 -2.03125 6.953125 -1.992188 7.015625 -1.921875 L 7.640625 -1.25 C 7.296875 -0.8125 6.867188 -0.476562 6.359375 -0.25 C 5.847656 -0.0195312 5.234375 0.09375 4.515625 0.09375 C 3.878906 0.09375 3.304688 -0.015625 2.796875 -0.234375 C 2.285156 -0.453125 1.847656 -0.753906 1.484375 -1.140625 C 1.128906 -1.523438 0.851562 -1.988281 0.65625 -2.53125 C 0.46875 -3.070312 0.375 -3.660156 0.375 -4.296875 C 0.375 -4.953125 0.476562 -5.546875 0.6875 -6.078125 C 0.90625 -6.617188 1.207031 -7.082031 1.59375 -7.46875 C 1.976562 -7.851562 2.441406 -8.15625 2.984375 -8.375 C 3.523438 -8.59375 4.125 -8.703125 4.78125 -8.703125 C 5.425781 -8.703125 5.984375 -8.597656 6.453125 -8.390625 C 6.929688 -8.191406 7.34375 -7.921875 7.6875 -7.578125 L 7.15625 -6.84375 C 7.125 -6.789062 7.082031 -6.742188 7.03125 -6.703125 C 6.976562 -6.671875 6.910156 -6.65625 6.828125 -6.65625 C 6.734375 -6.65625 6.640625 -6.691406 6.546875 -6.765625 C 6.453125 -6.835938 6.332031 -6.914062 6.1875 -7 C 6.039062 -7.082031 5.851562 -7.160156 5.625 -7.234375 C 5.40625 -7.304688 5.125 -7.34375 4.78125 -7.34375 C 4.375 -7.34375 4 -7.269531 3.65625 -7.125 C 3.320312 -6.988281 3.03125 -6.785156 2.78125 -6.515625 C 2.539062 -6.253906 2.347656 -5.9375 2.203125 -5.5625 C 2.066406 -5.1875 2 -4.765625 2 -4.296875 C 2 -3.816406 2.066406 -3.390625 2.203125 -3.015625 C 2.347656 -2.640625 2.535156 -2.320312 2.765625 -2.0625 C 3.003906 -1.800781 3.28125 -1.601562 3.59375 -1.46875 C 3.914062 -1.332031 4.257812 -1.265625 4.625 -1.265625 C 4.84375 -1.265625 5.039062 -1.273438 5.21875 -1.296875 C 5.394531 -1.316406 5.554688 -1.351562 5.703125 -1.40625 C 5.847656 -1.457031 5.988281 -1.523438 6.125 -1.609375 C 6.257812 -1.691406 6.390625 -1.789062 6.515625 -1.90625 C 6.554688 -1.945312 6.597656 -1.976562 6.640625 -2 C 6.679688 -2.019531 6.726562 -2.03125 6.78125 -2.03125 Z M 6.78125 -2.03125 "/></g></g></g><g fill="#342e17" fill-opacity="1"><g transform="translate(178.1429, 207.358401)"><g><path d="M 9.125 -4.296875 C 9.125 -3.671875 9.019531 -3.085938 8.8125 -2.546875 C 8.601562 -2.015625 8.304688 -1.550781 7.921875 -1.15625 C 7.546875 -0.757812 7.085938 -0.453125 6.546875 -0.234375 C 6.015625 -0.015625 5.421875 0.09375 4.765625 0.09375 C 4.117188 0.09375 3.523438 -0.015625 2.984375 -0.234375 C 2.441406 -0.453125 1.976562 -0.757812 1.59375 -1.15625 C 1.21875 -1.550781 0.925781 -2.015625 0.71875 -2.546875 C 0.507812 -3.085938 0.40625 -3.671875 0.40625 -4.296875 C 0.40625 -4.929688 0.507812 -5.515625 0.71875 -6.046875 C 0.925781 -6.585938 1.21875 -7.054688 1.59375 -7.453125 C 1.976562 -7.847656 2.441406 -8.15625 2.984375 -8.375 C 3.523438 -8.59375 4.117188 -8.703125 4.765625 -8.703125 C 5.421875 -8.703125 6.015625 -8.585938 6.546875 -8.359375 C 7.085938 -8.140625 7.546875 -7.832031 7.921875 -7.4375 C 8.304688 -7.050781 8.601562 -6.585938 8.8125 -6.046875 C 9.019531 -5.515625 9.125 -4.929688 9.125 -4.296875 Z M 7.484375 -4.296875 C 7.484375 -4.773438 7.421875 -5.203125 7.296875 -5.578125 C 7.171875 -5.953125 6.988281 -6.269531 6.75 -6.53125 C 6.519531 -6.789062 6.238281 -6.988281 5.90625 -7.125 C 5.570312 -7.269531 5.191406 -7.34375 4.765625 -7.34375 C 4.347656 -7.34375 3.96875 -7.269531 3.625 -7.125 C 3.289062 -6.988281 3.003906 -6.789062 2.765625 -6.53125 C 2.535156 -6.269531 2.351562 -5.953125 2.21875 -5.578125 C 2.09375 -5.203125 2.03125 -4.773438 2.03125 -4.296875 C 2.03125 -3.828125 2.09375 -3.40625 2.21875 -3.03125 C 2.351562 -2.65625 2.535156 -2.335938 2.765625 -2.078125 C 3.003906 -1.816406 3.289062 -1.617188 3.625 -1.484375 C 3.96875 -1.347656 4.347656 -1.28125 4.765625 -1.28125 C 5.191406 -1.28125 5.570312 -1.347656 5.90625 -1.484375 C 6.238281 -1.617188 6.519531 -1.816406 6.75 -2.078125 C 6.988281 -2.335938 7.171875 -2.65625 7.296875 -3.03125 C 7.421875 -3.40625 7.484375 -3.828125 7.484375 -4.296875 Z M 7.484375 -4.296875 "/></g></g></g><g fill="#342e17" fill-opacity="1"><g transform="translate(189.320397, 207.358401)"><g><path d="M 1.703125 -8.609375 C 1.773438 -8.609375 1.832031 -8.601562 1.875 -8.59375 C 1.925781 -8.59375 1.972656 -8.582031 2.015625 -8.5625 C 2.054688 -8.539062 2.09375 -8.515625 2.125 -8.484375 C 2.15625 -8.453125 2.195312 -8.410156 2.25 -8.359375 L 6.765625 -2.59375 C 6.742188 -2.726562 6.726562 -2.863281 6.71875 -3 C 6.71875 -3.132812 6.71875 -3.257812 6.71875 -3.375 L 6.71875 -8.609375 L 8.125 -8.609375 L 8.125 0 L 7.296875 0 C 7.171875 0 7.066406 -0.0195312 6.984375 -0.0625 C 6.898438 -0.101562 6.820312 -0.175781 6.75 -0.28125 L 2.25 -6 C 2.257812 -5.875 2.265625 -5.75 2.265625 -5.625 C 2.273438 -5.5 2.28125 -5.382812 2.28125 -5.28125 L 2.28125 0 L 0.875 0 L 0.875 -8.609375 Z M 1.703125 -8.609375 "/></g></g></g><g fill="#342e17" fill-opacity="1"><g transform="translate(199.980404, 207.358401)"><g><path d="M 5.484375 -7.046875 C 5.441406 -6.953125 5.390625 -6.882812 5.328125 -6.84375 C 5.273438 -6.8125 5.207031 -6.796875 5.125 -6.796875 C 5.039062 -6.796875 4.945312 -6.828125 4.84375 -6.890625 C 4.75 -6.953125 4.632812 -7.019531 4.5 -7.09375 C 4.363281 -7.175781 4.207031 -7.25 4.03125 -7.3125 C 3.851562 -7.375 3.640625 -7.40625 3.390625 -7.40625 C 3.171875 -7.40625 2.976562 -7.375 2.8125 -7.3125 C 2.644531 -7.257812 2.503906 -7.1875 2.390625 -7.09375 C 2.273438 -7 2.191406 -6.882812 2.140625 -6.75 C 2.085938 -6.613281 2.0625 -6.46875 2.0625 -6.3125 C 2.0625 -6.113281 2.117188 -5.945312 2.234375 -5.8125 C 2.347656 -5.675781 2.492188 -5.5625 2.671875 -5.46875 C 2.859375 -5.375 3.070312 -5.285156 3.3125 -5.203125 C 3.550781 -5.128906 3.796875 -5.050781 4.046875 -4.96875 C 4.296875 -4.882812 4.535156 -4.785156 4.765625 -4.671875 C 5.003906 -4.554688 5.21875 -4.410156 5.40625 -4.234375 C 5.59375 -4.066406 5.742188 -3.859375 5.859375 -3.609375 C 5.972656 -3.359375 6.03125 -3.054688 6.03125 -2.703125 C 6.03125 -2.304688 5.960938 -1.9375 5.828125 -1.59375 C 5.691406 -1.257812 5.492188 -0.96875 5.234375 -0.71875 C 4.984375 -0.46875 4.671875 -0.269531 4.296875 -0.125 C 3.929688 0.0195312 3.515625 0.09375 3.046875 0.09375 C 2.765625 0.09375 2.488281 0.0664062 2.21875 0.015625 C 1.957031 -0.0351562 1.703125 -0.109375 1.453125 -0.203125 C 1.210938 -0.304688 0.988281 -0.425781 0.78125 -0.5625 C 0.570312 -0.707031 0.382812 -0.863281 0.21875 -1.03125 L 0.671875 -1.796875 C 0.722656 -1.859375 0.773438 -1.90625 0.828125 -1.9375 C 0.890625 -1.976562 0.960938 -2 1.046875 -2 C 1.140625 -2 1.242188 -1.957031 1.359375 -1.875 C 1.472656 -1.789062 1.609375 -1.695312 1.765625 -1.59375 C 1.921875 -1.5 2.101562 -1.410156 2.3125 -1.328125 C 2.53125 -1.253906 2.789062 -1.21875 3.09375 -1.21875 C 3.550781 -1.21875 3.90625 -1.320312 4.15625 -1.53125 C 4.40625 -1.75 4.53125 -2.0625 4.53125 -2.46875 C 4.53125 -2.695312 4.472656 -2.878906 4.359375 -3.015625 C 4.242188 -3.160156 4.09375 -3.28125 3.90625 -3.375 C 3.71875 -3.476562 3.503906 -3.5625 3.265625 -3.625 C 3.023438 -3.695312 2.78125 -3.769531 2.53125 -3.84375 C 2.289062 -3.925781 2.050781 -4.019531 1.8125 -4.125 C 1.570312 -4.238281 1.359375 -4.382812 1.171875 -4.5625 C 0.992188 -4.75 0.847656 -4.972656 0.734375 -5.234375 C 0.617188 -5.503906 0.5625 -5.835938 0.5625 -6.234375 C 0.5625 -6.546875 0.625 -6.847656 0.75 -7.140625 C 0.875 -7.441406 1.054688 -7.707031 1.296875 -7.9375 C 1.535156 -8.164062 1.828125 -8.347656 2.171875 -8.484375 C 2.523438 -8.628906 2.925781 -8.703125 3.375 -8.703125 C 3.882812 -8.703125 4.351562 -8.625 4.78125 -8.46875 C 5.207031 -8.3125 5.570312 -8.085938 5.875 -7.796875 Z M 5.484375 -7.046875 "/></g></g></g><g fill="#342e17" fill-opacity="1"><g transform="translate(208.02918, 207.358401)"><g><path d="M 4.328125 -1.296875 C 4.640625 -1.296875 4.914062 -1.34375 5.15625 -1.4375 C 5.40625 -1.539062 5.613281 -1.6875 5.78125 -1.875 C 5.945312 -2.0625 6.070312 -2.285156 6.15625 -2.546875 C 6.25 -2.816406 6.296875 -3.117188 6.296875 -3.453125 L 6.296875 -8.609375 L 7.90625 -8.609375 L 7.90625 -3.453125 C 7.90625 -2.941406 7.820312 -2.46875 7.65625 -2.03125 C 7.488281 -1.59375 7.25 -1.21875 6.9375 -0.90625 C 6.632812 -0.59375 6.257812 -0.347656 5.8125 -0.171875 C 5.375 0.00390625 4.878906 0.09375 4.328125 0.09375 C 3.773438 0.09375 3.28125 0.00390625 2.84375 -0.171875 C 2.40625 -0.347656 2.03125 -0.59375 1.71875 -0.90625 C 1.414062 -1.21875 1.179688 -1.59375 1.015625 -2.03125 C 0.847656 -2.46875 0.765625 -2.941406 0.765625 -3.453125 L 0.765625 -8.609375 L 2.375 -8.609375 L 2.375 -3.453125 C 2.375 -3.128906 2.414062 -2.832031 2.5 -2.5625 C 2.59375 -2.300781 2.722656 -2.070312 2.890625 -1.875 C 3.054688 -1.6875 3.257812 -1.539062 3.5 -1.4375 C 3.75 -1.34375 4.023438 -1.296875 4.328125 -1.296875 Z M 4.328125 -1.296875 "/></g></g></g><g fill="#342e17" fill-opacity="1"><g transform="translate(218.356091, 207.358401)"><g><path d="M 2.46875 -1.328125 L 5.921875 -1.328125 L 5.921875 0 L 0.875 0 L 0.875 -8.609375 L 2.46875 -8.609375 Z M 2.46875 -1.328125 "/></g></g></g><g fill="#342e17" fill-opacity="1"><g transform="translate(226.172901, 207.358401)"><g><path d="M 6.9375 -8.609375 L 6.9375 -7.296875 L 4.34375 -7.296875 L 4.34375 0 L 2.75 0 L 2.75 -7.296875 L 0.140625 -7.296875 L 0.140625 -8.609375 Z M 6.9375 -8.609375 "/></g></g></g><g fill="#342e17" fill-opacity="1"><g transform="translate(234.917617, 207.358401)"><g><path d="M 2.671875 0 L 1.0625 0 L 1.0625 -8.609375 L 2.671875 -8.609375 Z M 2.671875 0 "/></g></g></g><g fill="#342e17" fill-opacity="1"><g transform="translate(240.319481, 207.358401)"><g><path d="M 1.703125 -8.609375 C 1.773438 -8.609375 1.832031 -8.601562 1.875 -8.59375 C 1.925781 -8.59375 1.972656 -8.582031 2.015625 -8.5625 C 2.054688 -8.539062 2.09375 -8.515625 2.125 -8.484375 C 2.15625 -8.453125 2.195312 -8.410156 2.25 -8.359375 L 6.765625 -2.59375 C 6.742188 -2.726562 6.726562 -2.863281 6.71875 -3 C 6.71875 -3.132812 6.71875 -3.257812 6.71875 -3.375 L 6.71875 -8.609375 L 8.125 -8.609375 L 8.125 0 L 7.296875 0 C 7.171875 0 7.066406 -0.0195312 6.984375 -0.0625 C 6.898438 -0.101562 6.820312 -0.175781 6.75 -0.28125 L 2.25 -6 C 2.257812 -5.875 2.265625 -5.75 2.265625 -5.625 C 2.273438 -5.5 2.28125 -5.382812 2.28125 -5.28125 L 2.28125 0 L 0.875 0 L 0.875 -8.609375 Z M 1.703125 -8.609375 "/></g></g></g><g fill="#342e17" fill-opacity="1"><g transform="translate(250.979488, 207.358401)"><g><path d="M 4.828125 -1.171875 C 5.179688 -1.171875 5.492188 -1.203125 5.765625 -1.265625 C 6.035156 -1.335938 6.289062 -1.429688 6.53125 -1.546875 L 6.53125 -3.109375 L 5.453125 -3.109375 C 5.347656 -3.109375 5.265625 -3.132812 5.203125 -3.1875 C 5.148438 -3.25 5.125 -3.320312 5.125 -3.40625 L 5.125 -4.3125 L 7.984375 -4.3125 L 7.984375 -0.828125 C 7.765625 -0.671875 7.535156 -0.535156 7.296875 -0.421875 C 7.066406 -0.304688 6.816406 -0.207031 6.546875 -0.125 C 6.273438 -0.0507812 5.988281 0 5.6875 0.03125 C 5.382812 0.0703125 5.054688 0.09375 4.703125 0.09375 C 4.066406 0.09375 3.484375 -0.015625 2.953125 -0.234375 C 2.429688 -0.453125 1.976562 -0.753906 1.59375 -1.140625 C 1.207031 -1.523438 0.90625 -1.988281 0.6875 -2.53125 C 0.476562 -3.070312 0.375 -3.660156 0.375 -4.296875 C 0.375 -4.953125 0.476562 -5.546875 0.6875 -6.078125 C 0.894531 -6.617188 1.191406 -7.082031 1.578125 -7.46875 C 1.960938 -7.863281 2.429688 -8.164062 2.984375 -8.375 C 3.535156 -8.59375 4.15625 -8.703125 4.84375 -8.703125 C 5.550781 -8.703125 6.160156 -8.597656 6.671875 -8.390625 C 7.179688 -8.179688 7.617188 -7.910156 7.984375 -7.578125 L 7.515625 -6.859375 C 7.421875 -6.703125 7.300781 -6.625 7.15625 -6.625 C 7.050781 -6.625 6.953125 -6.660156 6.859375 -6.734375 C 6.734375 -6.804688 6.601562 -6.878906 6.46875 -6.953125 C 6.332031 -7.023438 6.179688 -7.085938 6.015625 -7.140625 C 5.859375 -7.203125 5.679688 -7.25 5.484375 -7.28125 C 5.285156 -7.320312 5.054688 -7.34375 4.796875 -7.34375 C 4.367188 -7.34375 3.984375 -7.269531 3.640625 -7.125 C 3.296875 -6.976562 3.003906 -6.769531 2.765625 -6.5 C 2.523438 -6.238281 2.335938 -5.921875 2.203125 -5.546875 C 2.066406 -5.179688 2 -4.765625 2 -4.296875 C 2 -3.804688 2.066406 -3.367188 2.203125 -2.984375 C 2.347656 -2.597656 2.546875 -2.269531 2.796875 -2 C 3.046875 -1.726562 3.34375 -1.519531 3.6875 -1.375 C 4.03125 -1.238281 4.410156 -1.171875 4.828125 -1.171875 Z M 4.828125 -1.171875 "/></g></g></g><g fill="#342e17" fill-opacity="1"><g transform="translate(261.246925, 207.358401)"><g/></g></g><g fill="#342e17" fill-opacity="1"><g transform="translate(265.209349, 207.358401)"><g><path d="M 6.78125 -2.03125 C 6.875 -2.03125 6.953125 -1.992188 7.015625 -1.921875 L 7.640625 -1.25 C 7.296875 -0.8125 6.867188 -0.476562 6.359375 -0.25 C 5.847656 -0.0195312 5.234375 0.09375 4.515625 0.09375 C 3.878906 0.09375 3.304688 -0.015625 2.796875 -0.234375 C 2.285156 -0.453125 1.847656 -0.753906 1.484375 -1.140625 C 1.128906 -1.523438 0.851562 -1.988281 0.65625 -2.53125 C 0.46875 -3.070312 0.375 -3.660156 0.375 -4.296875 C 0.375 -4.953125 0.476562 -5.546875 0.6875 -6.078125 C 0.90625 -6.617188 1.207031 -7.082031 1.59375 -7.46875 C 1.976562 -7.851562 2.441406 -8.15625 2.984375 -8.375 C 3.523438 -8.59375 4.125 -8.703125 4.78125 -8.703125 C 5.425781 -8.703125 5.984375 -8.597656 6.453125 -8.390625 C 6.929688 -8.191406 7.34375 -7.921875 7.6875 -7.578125 L 7.15625 -6.84375 C 7.125 -6.789062 7.082031 -6.742188 7.03125 -6.703125 C 6.976562 -6.671875 6.910156 -6.65625 6.828125 -6.65625 C 6.734375 -6.65625 6.640625 -6.691406 6.546875 -6.765625 C 6.453125 -6.835938 6.332031 -6.914062 6.1875 -7 C 6.039062 -7.082031 5.851562 -7.160156 5.625 -7.234375 C 5.40625 -7.304688 5.125 -7.34375 4.78125 -7.34375 C 4.375 -7.34375 4 -7.269531 3.65625 -7.125 C 3.320312 -6.988281 3.03125 -6.785156 2.78125 -6.515625 C 2.539062 -6.253906 2.347656 -5.9375 2.203125 -5.5625 C 2.066406 -5.1875 2 -4.765625 2 -4.296875 C 2 -3.816406 2.066406 -3.390625 2.203125 -3.015625 C 2.347656 -2.640625 2.535156 -2.320312 2.765625 -2.0625 C 3.003906 -1.800781 3.28125 -1.601562 3.59375 -1.46875 C 3.914062 -1.332031 4.257812 -1.265625 4.625 -1.265625 C 4.84375 -1.265625 5.039062 -1.273438 5.21875 -1.296875 C 5.394531 -1.316406 5.554688 -1.351562 5.703125 -1.40625 C 5.847656 -1.457031 5.988281 -1.523438 6.125 -1.609375 C 6.257812 -1.691406 6.390625 -1.789062 6.515625 -1.90625 C 6.554688 -1.945312 6.597656 -1.976562 6.640625 -2 C 6.679688 -2.019531 6.726562 -2.03125 6.78125 -2.03125 Z M 6.78125 -2.03125 "/></g></g></g><g fill="#342e17" fill-opacity="1"><g transform="translate(274.852236, 207.358401)"><g><path d="M 9.125 -4.296875 C 9.125 -3.671875 9.019531 -3.085938 8.8125 -2.546875 C 8.601562 -2.015625 8.304688 -1.550781 7.921875 -1.15625 C 7.546875 -0.757812 7.085938 -0.453125 6.546875 -0.234375 C 6.015625 -0.015625 5.421875 0.09375 4.765625 0.09375 C 4.117188 0.09375 3.523438 -0.015625 2.984375 -0.234375 C 2.441406 -0.453125 1.976562 -0.757812 1.59375 -1.15625 C 1.21875 -1.550781 0.925781 -2.015625 0.71875 -2.546875 C 0.507812 -3.085938 0.40625 -3.671875 0.40625 -4.296875 C 0.40625 -4.929688 0.507812 -5.515625 0.71875 -6.046875 C 0.925781 -6.585938 1.21875 -7.054688 1.59375 -7.453125 C 1.976562 -7.847656 2.441406 -8.15625 2.984375 -8.375 C 3.523438 -8.59375 4.117188 -8.703125 4.765625 -8.703125 C 5.421875 -8.703125 6.015625 -8.585938 6.546875 -8.359375 C 7.085938 -8.140625 7.546875 -7.832031 7.921875 -7.4375 C 8.304688 -7.050781 8.601562 -6.585938 8.8125 -6.046875 C 9.019531 -5.515625 9.125 -4.929688 9.125 -4.296875 Z M 7.484375 -4.296875 C 7.484375 -4.773438 7.421875 -5.203125 7.296875 -5.578125 C 7.171875 -5.953125 6.988281 -6.269531 6.75 -6.53125 C 6.519531 -6.789062 6.238281 -6.988281 5.90625 -7.125 C 5.570312 -7.269531 5.191406 -7.34375 4.765625 -7.34375 C 4.347656 -7.34375 3.96875 -7.269531 3.625 -7.125 C 3.289062 -6.988281 3.003906 -6.789062 2.765625 -6.53125 C 2.535156 -6.269531 2.351562 -5.953125 2.21875 -5.578125 C 2.09375 -5.203125 2.03125 -4.773438 2.03125 -4.296875 C 2.03125 -3.828125 2.09375 -3.40625 2.21875 -3.03125 C 2.351562 -2.65625 2.535156 -2.335938 2.765625 -2.078125 C 3.003906 -1.816406 3.289062 -1.617188 3.625 -1.484375 C 3.96875 -1.347656 4.347656 -1.28125 4.765625 -1.28125 C 5.191406 -1.28125 5.570312 -1.347656 5.90625 -1.484375 C 6.238281 -1.617188 6.519531 -1.816406 6.75 -2.078125 C 6.988281 -2.335938 7.171875 -2.65625 7.296875 -3.03125 C 7.421875 -3.40625 7.484375 -3.828125 7.484375 -4.296875 Z M 7.484375 -4.296875 "/></g></g></g><g fill="#342e17" fill-opacity="1"><g transform="translate(286.029733, 207.358401)"><g><path d="M 5.1875 -3.578125 C 5.257812 -3.441406 5.320312 -3.304688 5.375 -3.171875 C 5.4375 -3.035156 5.492188 -2.898438 5.546875 -2.765625 C 5.597656 -2.898438 5.65625 -3.035156 5.71875 -3.171875 C 5.78125 -3.316406 5.84375 -3.453125 5.90625 -3.578125 L 8.453125 -8.359375 C 8.484375 -8.410156 8.515625 -8.453125 8.546875 -8.484375 C 8.585938 -8.523438 8.628906 -8.550781 8.671875 -8.5625 C 8.710938 -8.582031 8.757812 -8.59375 8.8125 -8.59375 C 8.863281 -8.601562 8.925781 -8.609375 9 -8.609375 L 10.203125 -8.609375 L 10.203125 0 L 8.796875 0 L 8.796875 -5.5625 C 8.796875 -5.664062 8.796875 -5.773438 8.796875 -5.890625 C 8.804688 -6.015625 8.816406 -6.144531 8.828125 -6.28125 L 6.234375 -1.390625 C 6.171875 -1.273438 6.09375 -1.1875 6 -1.125 C 5.90625 -1.070312 5.789062 -1.046875 5.65625 -1.046875 L 5.4375 -1.046875 C 5.3125 -1.046875 5.203125 -1.070312 5.109375 -1.125 C 5.015625 -1.1875 4.9375 -1.273438 4.875 -1.390625 L 2.234375 -6.296875 C 2.253906 -6.160156 2.265625 -6.03125 2.265625 -5.90625 C 2.273438 -5.78125 2.28125 -5.664062 2.28125 -5.5625 L 2.28125 0 L 0.875 0 L 0.875 -8.609375 L 2.078125 -8.609375 C 2.148438 -8.609375 2.210938 -8.601562 2.265625 -8.59375 C 2.316406 -8.59375 2.363281 -8.582031 2.40625 -8.5625 C 2.445312 -8.550781 2.484375 -8.523438 2.515625 -8.484375 C 2.554688 -8.453125 2.59375 -8.410156 2.625 -8.359375 Z M 5.1875 -3.578125 "/></g></g></g><g fill="#342e17" fill-opacity="1"><g transform="translate(298.759687, 207.358401)"><g><path d="M 2.53125 -3.03125 L 2.53125 0 L 0.921875 0 L 0.921875 -8.609375 L 3.734375 -8.609375 C 4.304688 -8.609375 4.800781 -8.539062 5.21875 -8.40625 C 5.644531 -8.269531 5.992188 -8.082031 6.265625 -7.84375 C 6.535156 -7.601562 6.734375 -7.3125 6.859375 -6.96875 C 6.992188 -6.632812 7.0625 -6.265625 7.0625 -5.859375 C 7.0625 -5.441406 6.992188 -5.0625 6.859375 -4.71875 C 6.722656 -4.375 6.515625 -4.078125 6.234375 -3.828125 C 5.953125 -3.578125 5.601562 -3.378906 5.1875 -3.234375 C 4.769531 -3.097656 4.285156 -3.03125 3.734375 -3.03125 Z M 2.53125 -4.28125 L 3.734375 -4.28125 C 4.023438 -4.28125 4.28125 -4.316406 4.5 -4.390625 C 4.71875 -4.460938 4.894531 -4.566406 5.03125 -4.703125 C 5.175781 -4.835938 5.285156 -5.003906 5.359375 -5.203125 C 5.429688 -5.398438 5.46875 -5.617188 5.46875 -5.859375 C 5.46875 -6.085938 5.429688 -6.296875 5.359375 -6.484375 C 5.285156 -6.671875 5.175781 -6.828125 5.03125 -6.953125 C 4.894531 -7.085938 4.71875 -7.191406 4.5 -7.265625 C 4.28125 -7.335938 4.023438 -7.375 3.734375 -7.375 L 2.53125 -7.375 Z M 2.53125 -4.28125 "/></g></g></g><g fill="#342e17" fill-opacity="1"><g transform="translate(307.861291, 207.358401)"><g><path d="M 8.4375 0 L 7.203125 0 C 7.054688 0 6.9375 -0.03125 6.84375 -0.09375 C 6.757812 -0.164062 6.695312 -0.253906 6.65625 -0.359375 L 6.015625 -2.125 L 2.453125 -2.125 L 1.8125 -0.359375 C 1.78125 -0.265625 1.71875 -0.179688 1.625 -0.109375 C 1.53125 -0.0351562 1.414062 0 1.28125 0 L 0.03125 0 L 3.421875 -8.609375 L 5.046875 -8.609375 Z M 2.859375 -3.25 L 5.609375 -3.25 L 4.5625 -6.109375 C 4.507812 -6.234375 4.453125 -6.382812 4.390625 -6.5625 C 4.335938 -6.738281 4.285156 -6.925781 4.234375 -7.125 C 4.179688 -6.925781 4.125 -6.738281 4.0625 -6.5625 C 4.007812 -6.382812 3.957031 -6.234375 3.90625 -6.109375 Z M 2.859375 -3.25 "/></g></g></g><g fill="#342e17" fill-opacity="1"><g transform="translate(317.97407, 207.358401)"><g><path d="M 1.703125 -8.609375 C 1.773438 -8.609375 1.832031 -8.601562 1.875 -8.59375 C 1.925781 -8.59375 1.972656 -8.582031 2.015625 -8.5625 C 2.054688 -8.539062 2.09375 -8.515625 2.125 -8.484375 C 2.15625 -8.453125 2.195312 -8.410156 2.25 -8.359375 L 6.765625 -2.59375 C 6.742188 -2.726562 6.726562 -2.863281 6.71875 -3 C 6.71875 -3.132812 6.71875 -3.257812 6.71875 -3.375 L 6.71875 -8.609375 L 8.125 -8.609375 L 8.125 0 L 7.296875 0 C 7.171875 0 7.066406 -0.0195312 6.984375 -0.0625 C 6.898438 -0.101562 6.820312 -0.175781 6.75 -0.28125 L 2.25 -6 C 2.257812 -5.875 2.265625 -5.75 2.265625 -5.625 C 2.273438 -5.5 2.28125 -5.382812 2.28125 -5.28125 L 2.28125 0 L 0.875 0 L 0.875 -8.609375 Z M 1.703125 -8.609375 "/></g></g></g><g fill="#342e17" fill-opacity="1"><g transform="translate(328.63409, 207.358401)"><g><path d="M 4.703125 -3.34375 L 4.703125 0 L 3.09375 0 L 3.09375 -3.34375 L -0.046875 -8.609375 L 1.375 -8.609375 C 1.507812 -8.609375 1.617188 -8.570312 1.703125 -8.5 C 1.785156 -8.4375 1.851562 -8.351562 1.90625 -8.25 L 3.484375 -5.375 C 3.578125 -5.207031 3.65625 -5.046875 3.71875 -4.890625 C 3.789062 -4.734375 3.851562 -4.582031 3.90625 -4.4375 C 3.957031 -4.59375 4.015625 -4.742188 4.078125 -4.890625 C 4.140625 -5.046875 4.21875 -5.207031 4.3125 -5.375 L 5.875 -8.25 C 5.925781 -8.332031 5.992188 -8.410156 6.078125 -8.484375 C 6.160156 -8.566406 6.269531 -8.609375 6.40625 -8.609375 L 7.828125 -8.609375 Z M 4.703125 -3.34375 "/></g></g></g></svg>